<?xml version="1.0" standalone="no"?>
<!DOCTYPE svg PUBLIC "-//W3C//DTD SVG 20010904//EN"
 "http://www.w3.org/TR/2001/REC-SVG-20010904/DTD/svg10.dtd">
<svg version="1.0" xmlns="http://www.w3.org/2000/svg"
 width="1200.000000pt" height="630.000000pt" viewBox="0 0 1200.000000 630.000000"
 preserveAspectRatio="xMidYMid meet">

<g transform="translate(0.000000,630.000000) scale(0.100000,-0.100000)"
fill="#000000" stroke="none">
<path d="M8353 6190 c-42 -25 -63 -68 -63 -129 0 -39 6 -56 27 -82 49 -58 58
-59 443 -59 385 0 394 1 443 59 50 60 32 170 -36 211 -30 19 -53 20 -407 20
-354 0 -377 -1 -407 -20z m175 -100 c5 -13 3 -13 -11 -1 -21 17 -47 0 -47 -31
0 -24 26 -34 47 -17 14 12 16 12 11 -1 -3 -9 -17 -15 -34 -15 -24 0 -30 4 -32
28 -2 16 2 35 9 43 15 18 51 15 57 -6z m367 -10 c0 -18 -6 -26 -22 -28 -12 -2
-24 -11 -26 -20 -3 -9 -5 5 -6 31 -1 47 0 48 27 45 21 -2 27 -8 27 -28z m-171
-15 c-3 -12 -1 -26 5 -29 7 -4 11 1 11 12 0 25 25 46 45 38 22 -8 18 -36 -5
-36 -11 0 -20 -5 -20 -11 0 -6 9 -9 20 -6 11 3 18 1 15 -3 -3 -5 -23 -8 -44
-8 -37 0 -39 2 -43 34 -4 37 -1 47 13 38 5 -3 6 -16 3 -29z m331 -11 c0 -19
-3 -34 -6 -34 -8 0 -17 69 -10 75 9 10 16 -7 16 -41z m-493 24 c-5 -7 -12 -24
-15 -38 -3 -18 -5 -15 -6 13 -1 28 3 37 15 37 12 0 14 -3 6 -12z m66 -11 c2
-12 -3 -17 -17 -17 -12 0 -21 -5 -21 -11 0 -6 9 -9 20 -6 11 3 20 1 20 -4 0
-16 -48 -10 -54 7 -8 22 12 56 32 52 9 -2 18 -11 20 -21z m60 -15 c3 -29 1
-32 -22 -32 -31 0 -36 29 -6 37 11 3 17 9 15 14 -3 4 -13 5 -22 2 -11 -4 -14
-3 -9 6 15 23 41 7 44 -27z m272 19 c14 -27 2 -53 -24 -49 -21 3 -32 28 -22
54 8 20 33 17 46 -5z m56 7 c5 -8 2 -9 -9 -5 -10 3 -17 2 -17 -2 0 -5 7 -11
15 -15 8 -3 15 -12 15 -21 0 -17 -35 -21 -46 -4 -4 8 1 9 17 5 22 -6 23 -6 7
7 -10 8 -18 22 -18 31 0 18 25 22 36 4z"/>
<path d="M8854 6089 c-10 -17 13 -36 27 -22 12 12 4 33 -11 33 -5 0 -12 -5
-16 -11z"/>
<path d="M8765 6070 c-3 -5 1 -10 10 -10 9 0 13 5 10 10 -3 6 -8 10 -10 10 -2
0 -7 -4 -10 -10z"/>
<path d="M8595 6070 c-3 -5 1 -10 10 -10 9 0 13 5 10 10 -3 6 -8 10 -10 10 -2
0 -7 -4 -10 -10z"/>
<path d="M8655 6040 c-3 -5 1 -10 9 -10 9 0 16 5 16 10 0 6 -4 10 -9 10 -6 0
-13 -4 -16 -10z"/>
<path d="M8926 6073 c-12 -12 -6 -43 9 -43 8 0 15 9 15 19 0 21 -13 34 -24 24z"/>
<path d="M9633 6203 c81 -2 213 -2 295 0 81 1 14 3 -148 3 -162 0 -229 -2
-147 -3z"/>
<path d="M9434 6168 l-29 -33 35 30 c19 17 37 31 39 33 2 1 0 2 -5 2 -6 0 -23
-15 -40 -32z"/>
<path d="M10081 6198 c2 -2 20 -16 39 -33 l35 -30 -29 33 c-17 17 -34 32 -40
32 -5 0 -7 -1 -5 -2z"/>
<path d="M10400 6174 c0 -8 9 -14 19 -14 11 0 21 -4 23 -9 2 -5 8 -3 15 4 9 9
4 14 -23 23 -27 8 -34 7 -34 -4z"/>
<path d="M1525 6150 c-3 -5 3 -10 14 -10 11 0 23 5 26 10 3 6 -3 10 -14 10
-11 0 -23 -4 -26 -10z"/>
<path d="M1575 6141 c-6 -11 33 -36 42 -27 3 3 3 12 0 21 -7 17 -33 20 -42 6z"/>
<path d="M10392 6131 c-16 -10 14 -54 31 -45 7 4 -1 -7 -17 -24 -17 -18 -24
-33 -18 -33 7 -1 18 -2 25 -3 6 -1 15 -5 19 -11 4 -5 8 2 8 17 0 33 8 38 38
27 14 -6 22 -17 22 -33 0 -26 15 -43 24 -27 9 14 -34 91 -50 91 -8 0 -14 5
-14 10 0 6 -5 10 -12 10 -6 0 -19 7 -27 14 -9 8 -22 12 -29 7z"/>
<path d="M1731 6068 c1 -35 4 -53 6 -42 3 15 14 24 34 28 27 5 30 9 27 38 -3
29 -7 33 -35 36 l-33 3 1 -63z m56 26 c5 -15 -28 -27 -40 -15 -5 5 -6 14 -2
21 8 13 37 9 42 -6z"/>
<path d="M1513 6104 c-3 -8 -1 -20 4 -25 7 -7 12 -2 15 15 6 28 -9 36 -19 10z"/>
<path d="M1477 6096 c-12 -30 -8 -56 8 -56 16 0 18 23 6 54 -7 18 -8 18 -14 2z"/>
<path d="M1550 6084 c-6 -14 -10 -30 -10 -35 0 -16 26 -10 45 11 15 16 15 22
5 35 -18 22 -29 19 -40 -11z"/>
<path d="M1637 6075 c7 -49 13 -58 13 -19 0 16 -5 36 -10 44 -6 10 -7 2 -3
-25z"/>
<path d="M2197 6103 c-4 -3 -7 -21 -7 -38 0 -33 24 -65 38 -50 4 4 1 10 -5 12
-16 6 -17 50 -2 55 7 2 6 8 -3 16 -8 6 -18 9 -21 5z"/>
<path d="M9564 6098 c-4 -6 4 -20 19 -33 34 -26 34 -39 2 -33 -13 3 -22 1 -19
-3 8 -13 42 -11 50 3 4 6 -4 21 -20 33 -18 14 -24 25 -17 29 6 4 16 4 21 1 6
-3 10 -1 10 4 0 15 -37 14 -46 -1z"/>
<path d="M9830 6096 c-15 -19 -9 -56 11 -69 25 -16 49 -1 49 31 0 46 -35 68
-60 38z m45 -31 c0 -23 -4 -30 -20 -30 -21 0 -31 25 -21 51 11 28 41 12 41
-21z"/>
<path d="M9392 6070 c0 -19 2 -27 5 -17 2 9 2 25 0 35 -3 9 -5 1 -5 -18z"/>
<path d="M10162 6070 c0 -19 2 -27 5 -17 2 9 2 25 0 35 -3 9 -5 1 -5 -18z"/>
<path d="M10353 6088 c-27 -13 -30 -33 -7 -42 8 -3 12 -10 9 -16 -13 -21 7 -9
30 18 17 19 20 30 13 40 -12 14 -16 14 -45 0z"/>
<path d="M1820 6050 c0 -22 5 -40 10 -40 6 0 10 13 10 30 0 17 7 33 18 39 14
9 13 10 -10 11 -26 0 -28 -3 -28 -40z"/>
<path d="M1884 6065 c-5 -18 -1 -32 10 -43 23 -23 51 -4 51 34 0 24 -5 30 -27
32 -22 3 -29 -2 -34 -23z m50 -1 c8 -20 -1 -34 -20 -34 -8 0 -14 10 -14 25 0
28 24 34 34 9z"/>
<path d="M1970 6050 c0 -47 17 -54 22 -8 4 46 28 49 28 3 0 -21 4 -34 10 -30
6 3 10 19 10 36 0 16 5 29 10 29 6 0 10 -16 10 -35 0 -19 5 -35 10 -35 6 0 10
18 10 40 l0 40 -55 0 -55 0 0 -40z"/>
<path d="M2100 6036 c0 -31 5 -56 10 -56 6 0 10 9 10 20 0 11 5 17 13 15 22
-8 39 11 35 41 -2 25 -8 29 -35 32 l-33 3 0 -55z m57 28 c8 -21 -13 -42 -28
-27 -13 13 -5 43 11 43 6 0 13 -7 17 -16z"/>
<path d="M2247 6083 c-13 -12 -7 -22 21 -38 l27 -16 -30 6 c-29 6 -29 6 -12
-12 13 -13 21 -15 34 -7 27 17 27 33 -1 44 -30 11 -35 24 -6 15 11 -4 20 -2
20 4 0 12 -43 15 -53 4z"/>
<path d="M9667 6083 c-4 -3 -7 -11 -7 -17 0 -6 5 -4 10 4 14 22 32 -1 28 -36
-2 -21 -8 -29 -22 -27 -11 1 -15 -2 -9 -8 5 -5 17 -7 26 -3 23 8 24 79 1 88
-19 7 -19 7 -27 -1z"/>
<path d="M9970 6079 c0 -5 5 -7 10 -4 6 3 10 8 10 11 0 2 -4 4 -10 4 -5 0 -10
-5 -10 -11z"/>
<path d="M9632 6050 c0 -19 2 -27 5 -17 2 9 2 25 0 35 -3 9 -5 1 -5 -18z"/>
<path d="M1596 6041 c-11 -12 -26 -21 -35 -21 -23 -1 17 -30 40 -30 23 0 27 9
20 44 l-6 28 -19 -21z"/>
<path d="M9667 6029 c7 -7 15 -10 18 -7 3 3 -2 9 -12 12 -14 6 -15 5 -6 -5z"/>
<path d="M9910 6028 c0 -4 9 -8 20 -8 11 0 20 4 20 8 0 4 -9 8 -20 8 -11 0
-20 -4 -20 -8z"/>
<path d="M1498 5998 c12 -12 25 -19 28 -15 4 4 -1 14 -12 22 -29 22 -41 18
-16 -7z"/>
<path d="M9400 6011 c0 -6 4 -13 10 -16 6 -3 7 1 4 9 -7 18 -14 21 -14 7z"/>
<path d="M10146 6003 c-6 -14 -5 -15 5 -6 7 7 10 15 7 18 -3 3 -9 -2 -12 -12z"/>
<path d="M10370 6009 c-13 -8 -12 -12 5 -25 18 -14 20 -13 23 2 5 22 -10 35
-28 23z"/>
<path d="M1550 5980 c0 -6 7 -10 15 -10 8 0 15 2 15 4 0 2 -7 6 -15 10 -8 3
-15 1 -15 -4z"/>
<path d="M9448 5953 c13 -13 28 -23 35 -23 7 0 3 6 -8 12 -11 6 -27 16 -35 22
-9 6 -5 1 8 -11z"/>
<path d="M10101 5954 c-19 -13 -29 -24 -23 -24 6 0 24 11 39 25 35 31 28 31
-16 -1z"/>
<path d="M9638 5923 c78 -2 206 -2 285 0 78 1 14 3 -143 3 -157 0 -221 -2
-142 -3z"/>
<path d="M4453 5109 c-34 -12 -41 -58 -13 -81 27 -22 39 -23 68 -2 51 36 5
106 -55 83z"/>
<path d="M6970 4930 l0 -190 50 0 49 0 3 93 c3 84 5 92 23 92 18 0 20 -8 23
-92 l3 -93 50 0 51 0 -4 110 c-3 97 -6 112 -25 132 -27 26 -75 28 -103 3 -20
-18 -20 -18 -20 58 l0 77 -50 0 -50 0 0 -190z"/>
<path d="M6315 5101 c-51 -22 -72 -74 -50 -127 15 -37 15 -38 -9 -58 -52 -45
-60 -98 -21 -145 33 -39 95 -50 150 -27 26 11 42 13 49 6 5 -5 32 -10 59 -10
l49 0 -29 38 -29 37 18 35 c10 19 18 45 18 58 0 18 -5 22 -34 22 -28 0 -35 -4
-41 -27 l-6 -26 -26 26 -26 26 31 26 c32 27 42 68 26 110 -14 35 -83 54 -129
36z m63 -74 c5 -27 -17 -50 -34 -36 -15 12 -19 41 -7 53 12 12 38 1 41 -17z
m-28 -169 c33 -37 37 -53 14 -62 -24 -9 -31 -8 -48 10 -22 21 -21 84 1 84 2 0
17 -15 33 -32z"/>
<path d="M6773 5100 c-46 -15 -73 -54 -73 -107 0 -38 5 -50 34 -79 19 -19 41
-34 48 -34 8 0 23 -9 33 -20 17 -19 17 -22 2 -37 -16 -16 -41 -13 -104 13 -9
4 -13 -7 -13 -40 0 -45 1 -45 42 -56 95 -26 184 18 195 95 4 35 1 46 -22 73
-15 18 -45 42 -66 52 -48 25 -56 38 -35 58 15 15 20 15 61 1 l45 -17 0 44 c0
23 -4 46 -10 49 -18 11 -105 14 -137 5z"/>
<path d="M4080 4920 l0 -180 90 0 c155 0 215 52 215 185 -1 134 -50 174 -212
175 l-93 0 0 -180z m175 75 c20 -19 25 -34 25 -75 0 -41 -5 -56 -25 -75 -13
-14 -36 -25 -50 -25 l-25 0 0 100 0 100 25 0 c14 0 37 -11 50 -25z"/>
<path d="M4648 5003 c-15 -2 -39 -18 -53 -34 -42 -51 -30 -96 35 -129 65 -33
43 -64 -24 -36 l-37 15 3 -36 c3 -33 7 -38 37 -46 45 -11 92 -2 125 24 23 18
27 28 24 67 -3 43 -6 48 -45 70 -55 30 -56 46 -3 39 40 -5 40 -5 40 29 0 26
-4 34 -17 34 -10 0 -27 2 -38 4 -11 2 -32 1 -47 -1z"/>
<path d="M4883 4999 c-40 -12 -80 -59 -89 -106 -9 -48 13 -110 47 -135 31 -24
95 -33 130 -20 21 9 25 15 21 44 -4 32 -5 34 -40 30 -26 -3 -39 0 -49 14 -34
47 0 110 56 102 27 -4 30 -2 33 29 2 19 2 36 -2 38 -16 10 -79 13 -107 4z"/>
<path d="M5113 4999 c-17 -5 -43 -23 -57 -40 -21 -25 -26 -41 -26 -89 0 -48 5
-64 25 -89 45 -53 131 -64 191 -24 32 20 58 93 50 137 -9 48 -50 93 -94 106
-42 11 -46 11 -89 -1z m75 -81 c17 -17 15 -83 -3 -98 -22 -19 -49 -8 -58 25
-17 59 25 109 61 73z"/>
<path d="M5681 4993 c-54 -28 -75 -65 -75 -128 0 -96 65 -148 162 -129 43 8
47 12 50 41 3 31 3 31 -36 26 -39 -5 -82 9 -82 27 0 6 32 10 70 10 l70 0 0 39
c0 52 -14 87 -42 104 -40 26 -80 29 -117 10z m69 -57 c0 -2 3 -11 6 -20 5 -13
-1 -16 -25 -16 -29 0 -41 16 -24 33 7 8 43 10 43 3z"/>
<path d="M6005 4986 c-23 -23 -25 -23 -25 -6 0 17 -7 20 -50 20 l-50 0 0 -130
0 -130 50 0 50 0 0 80 c0 69 3 81 20 90 11 6 28 10 38 8 14 -2 17 5 17 41 0
53 -15 62 -50 27z"/>
<path d="M7313 4998 c-41 -9 -43 -11 -43 -44 0 -32 2 -34 20 -24 26 14 92 9
97 -7 3 -7 -7 -15 -21 -18 -14 -3 -37 -7 -51 -10 -65 -14 -88 -93 -40 -140 30
-30 54 -31 89 -4 21 17 26 18 26 5 0 -12 11 -16 45 -16 l45 0 0 95 c0 117 -13
149 -68 164 -42 12 -42 12 -99 -1z m75 -170 c-3 -25 -36 -37 -48 -17 -13 20 0
39 27 39 20 0 24 -4 21 -22z"/>
<path d="M7655 4986 c-23 -23 -25 -23 -25 -6 0 17 -7 20 -50 20 l-50 0 0 -130
0 -130 50 0 50 0 0 73 c0 83 8 101 47 103 26 1 28 4 28 44 0 52 -15 61 -50 26z"/>
<path d="M7814 4999 c-54 -15 -78 -51 -82 -124 -4 -53 -1 -69 17 -94 28 -39
85 -57 143 -45 39 8 43 12 46 41 3 31 3 31 -36 26 -39 -5 -82 9 -82 27 0 6 32
10 70 10 l70 0 0 51 c0 43 -5 55 -29 80 -16 16 -36 29 -44 29 -9 0 -21 2 -29
4 -7 2 -27 0 -44 -5z m64 -81 c3 -14 -3 -18 -27 -18 -29 0 -41 17 -24 34 13
13 48 1 51 -16z"/>
<path d="M4430 4870 l0 -130 45 0 45 0 0 130 0 130 -45 0 -45 0 0 -130z"/>
<path d="M5325 4958 c7 -24 25 -82 39 -130 l27 -88 58 0 58 0 37 116 c21 64
40 123 43 130 4 11 -7 14 -45 14 -57 0 -54 5 -73 -108 -7 -39 -14 -70 -17 -67
-3 2 -12 42 -21 87 l-17 83 -51 3 -51 3 13 -43z"/>
<path d="M6210 4529 c0 -39 -3 -69 -7 -67 -5 2 -20 10 -34 17 -22 11 -31 11
-54 0 -48 -24 -68 -61 -68 -128 0 -67 19 -106 60 -122 28 -10 83 4 83 22 0 5
5 9 10 9 6 0 10 -7 10 -15 0 -11 12 -15 45 -15 l45 0 0 185 0 185 -45 0 -45 0
0 -71z m0 -135 c15 -39 -1 -88 -30 -92 -42 -6 -65 52 -40 99 16 29 58 25 70
-7z"/>
<path d="M6500 4405 l0 -175 48 2 47 1 -42 4 -43 4 0 164 0 164 88 4 87 3 -92
2 -93 2 0 -175z"/>
<path d="M6520 4405 c0 -134 2 -155 16 -155 8 0 12 5 9 10 -3 6 -1 10 5 10 6
0 8 5 4 12 -11 18 -12 48 -2 48 5 0 6 6 1 13 -11 18 -12 37 -2 37 6 0 7 6 3
12 -11 18 -12 48 -2 48 5 0 6 6 1 13 -11 18 -12 37 -2 37 6 0 7 6 2 13 -11 17
-10 41 2 49 6 4 0 8 -12 8 -23 0 -23 -1 -23 -155z"/>
<path d="M6605 4523 c17 -3 39 -12 50 -21 20 -17 20 -17 1 6 -13 15 -29 22
-50 21 l-31 -2 30 -4z"/>
<path d="M6573 4465 c0 -27 2 -38 4 -22 2 15 2 37 0 50 -2 12 -4 0 -4 -28z"/>
<path d="M5385 4476 c-47 -21 -67 -51 -73 -106 -9 -94 36 -144 130 -143 56 1
68 7 68 37 0 22 -3 23 -43 19 -32 -4 -48 -1 -60 12 -29 29 -19 35 56 35 l73 0
-6 48 c-4 26 -10 54 -14 62 -16 37 -86 56 -131 36z m-30 -39 c-8 -13 -12 -27
-8 -31 4 -4 1 -11 -7 -16 -11 -7 -11 -10 -2 -10 8 0 12 -15 11 -50 -1 -28 3
-56 11 -65 11 -13 10 -15 -3 -10 -40 16 -49 144 -12 185 24 27 29 25 10 -3z
m93 -9 c7 -7 12 -20 12 -30 0 -14 -8 -18 -35 -18 -27 0 -35 4 -35 18 0 20 18
42 35 42 6 0 16 -5 23 -12z"/>
<path d="M5699 4459 l-29 -31 0 26 c0 24 -3 26 -45 26 l-45 0 0 -125 0 -125
45 0 45 0 0 74 c0 82 13 106 56 106 21 0 24 4 24 40 0 48 -12 50 -51 9z"/>
<path d="M5855 4476 c-50 -22 -68 -51 -72 -114 -7 -102 56 -155 159 -135 36 7
41 12 42 35 2 26 0 27 -36 22 -26 -5 -45 -2 -63 10 -41 27 -29 36 50 36 l75 0
0 30 c0 53 -26 99 -64 115 -43 18 -52 18 -91 1z m73 -73 c3 -20 -1 -23 -32
-23 -39 0 -41 2 -25 31 14 27 53 21 57 -8z"/>
<path d="M4938 4473 c7 -3 16 -2 19 1 4 3 -2 6 -13 5 -11 0 -14 -3 -6 -6z"/>
<path d="M5073 4473 c15 -2 37 -2 50 0 12 2 0 4 -28 4 -27 0 -38 -2 -22 -4z"/>
<path d="M5200 4476 c0 -2 16 -6 35 -8 19 -2 35 0 35 4 0 4 -16 8 -35 8 -19 0
-35 -2 -35 -4z"/>
<path d="M6823 4473 c15 -2 37 -2 50 0 12 2 0 4 -28 4 -27 0 -38 -2 -22 -4z"/>
<path d="M6804 4355 c0 -60 1 -84 3 -52 2 32 2 81 0 110 -2 29 -3 3 -3 -58z"/>
<path d="M5252 4430 c0 -14 2 -19 5 -12 2 6 2 18 0 25 -3 6 -5 1 -5 -13z"/>
<path d="M6615 4410 l-30 -8 27 -1 c15 0 30 4 33 9 3 6 5 9 3 9 -2 -1 -16 -5
-33 -9z"/>
<path d="M5192 4385 c0 -16 2 -22 5 -12 2 9 2 23 0 30 -3 6 -5 -1 -5 -18z"/>
<path d="M5226 4339 c-8 -42 0 -50 9 -9 4 17 5 34 2 36 -2 3 -7 -10 -11 -27z"/>
<path d="M6608 4353 c12 -2 32 -2 45 0 12 2 2 4 -23 4 -25 0 -35 -2 -22 -4z"/>
<path d="M5152 4320 c0 -14 2 -19 5 -12 2 6 2 18 0 25 -3 6 -5 1 -5 -13z"/>
<path d="M5181 4324 c0 -11 3 -14 6 -6 3 7 2 16 -1 19 -3 4 -6 -2 -5 -13z"/>
<path d="M6573 4295 c0 -27 2 -38 4 -22 2 15 2 37 0 50 -2 12 -4 0 -4 -28z"/>
<path d="M4998 4233 c12 -2 30 -2 40 0 9 3 -1 5 -23 4 -22 0 -30 -2 -17 -4z"/>
<path d="M5143 4233 c15 -2 37 -2 50 0 12 2 0 4 -28 4 -27 0 -38 -2 -22 -4z"/>
<path d="M6838 4233 c12 -2 30 -2 40 0 9 3 -1 5 -23 4 -22 0 -30 -2 -17 -4z"/>
<path d="M3641 3878 c1 -35 4 -53 6 -42 2 12 15 26 29 32 39 18 26 72 -18 72
-16 0 -18 -8 -17 -62z m47 28 c4 -17 -12 -35 -30 -36 -5 0 -8 14 -8 31 0 24 4
30 17 27 10 -2 19 -12 21 -22z"/>
<path d="M7002 3920 c-4 -11 -5 -39 -3 -63 l6 -42 3 35 c2 19 9 38 15 42 9 6
9 8 0 8 -7 0 -13 6 -13 14 0 8 6 17 13 19 9 4 9 6 -1 6 -7 1 -16 -8 -20 -19z"/>
<path d="M7523 3880 c0 -36 2 -50 4 -32 2 17 2 47 0 65 -2 17 -4 3 -4 -33z"/>
<path d="M8093 3880 c0 -36 2 -50 4 -32 2 17 2 47 0 65 -2 17 -4 3 -4 -33z"/>
<path d="M8181 3924 c0 -11 3 -14 6 -6 3 7 2 16 -1 19 -3 4 -6 -2 -5 -13z"/>
<path d="M5715 3879 c-9 -28 -14 -53 -11 -56 3 -4 6 1 6 10 0 12 9 17 30 17
21 0 30 -5 30 -17 0 -9 3 -14 6 -10 8 8 -25 107 -36 107 -5 0 -16 -23 -25 -51z
m35 22 c0 -5 3 -16 6 -25 4 -12 0 -16 -16 -16 -16 0 -20 4 -16 16 3 9 6 20 6
25 0 5 5 9 10 9 6 0 10 -4 10 -9z"/>
<path d="M5813 3875 c0 -33 2 -45 4 -27 2 18 2 45 0 60 -2 15 -4 0 -4 -33z"/>
<path d="M4102 3904 c-7 -8 -8 -14 -2 -14 5 0 10 -16 10 -35 0 -19 3 -35 8
-35 7 0 8 88 0 95 -1 1 -9 -3 -16 -11z"/>
<path d="M6679 3908 c-2 -29 3 -74 10 -81 4 -4 6 7 3 24 -3 17 0 34 6 38 6 4
5 11 -4 19 -11 10 -14 10 -15 0z"/>
<path d="M8268 3909 c-6 -17 4 -89 11 -89 4 0 5 14 3 31 -3 17 0 34 6 38 6 4
5 10 -3 18 -9 8 -15 9 -17 2z"/>
<path d="M6355 3900 c-4 -6 3 -10 14 -10 25 0 27 6 6 13 -8 4 -17 2 -20 -3z"/>
<path d="M3726 3887 c3 -10 9 -15 12 -12 3 3 0 11 -7 18 -10 9 -11 8 -5 -6z"/>
<path d="M3785 3889 c-4 -6 -4 -13 -1 -16 3 -4 6 -1 6 5 0 18 40 14 47 -4 3
-9 1 -25 -6 -35 -6 -11 -7 -19 -1 -19 16 0 23 49 10 65 -14 17 -46 20 -55 4z"/>
<path d="M3870 3861 c0 -23 2 -41 4 -41 8 0 12 71 4 76 -4 3 -8 -13 -8 -35z"/>
<path d="M3908 3893 c6 -3 13 -21 13 -41 l2 -37 6 35 c9 50 38 53 44 6 l4 -36
-1 37 c-1 37 -2 38 -41 39 -22 1 -34 -1 -27 -3z"/>
<path d="M4012 3835 l1 -60 6 55 c5 41 10 56 24 58 22 4 34 -25 18 -49 -6 -11
-7 -19 -1 -19 16 0 23 49 10 65 -7 8 -23 14 -36 13 -23 -2 -24 -6 -22 -63z"/>
<path d="M4193 3885 c0 -8 4 -15 9 -15 4 0 8 4 8 9 0 6 -4 12 -8 15 -5 3 -9
-1 -9 -9z"/>
<path d="M4233 3889 c10 -6 17 -23 18 -42 1 -18 3 -24 6 -14 8 30 -6 67 -25
67 -16 -1 -16 -1 1 -11z"/>
<path d="M4284 3886 c-9 -24 0 -59 16 -63 12 -4 12 -3 2 5 -19 13 -11 56 11
60 23 5 33 -25 18 -50 -7 -12 -8 -17 -2 -13 17 10 13 -21 -4 -35 -8 -6 -20 -8
-27 -4 -10 5 -10 4 -1 -6 10 -11 16 -10 33 5 15 13 20 31 20 64 0 45 -1 47
-30 49 -19 1 -33 -3 -36 -12z"/>
<path d="M4423 3860 c0 -25 2 -35 4 -22 2 12 2 32 0 45 -2 12 -4 2 -4 -23z"/>
<path d="M4454 3889 c-3 -6 -1 -16 5 -22 9 -9 11 -8 6 5 -5 12 0 18 17 21 22
4 22 4 1 6 -12 0 -25 -4 -29 -10z"/>
<path d="M4588 3893 c23 -5 31 -23 10 -23 -9 0 -10 -2 -2 -8 7 -4 14 -16 17
-27 3 -11 5 -2 4 20 -2 35 -5 40 -27 42 -22 1 -22 1 -2 -4z"/>
<path d="M4653 3860 c0 -25 2 -35 4 -22 2 12 2 32 0 45 -2 12 -4 2 -4 -23z"/>
<path d="M4682 3894 c11 -3 18 -19 21 -42 l4 -37 -1 40 c-1 32 -5 40 -21 42
-15 1 -15 0 -3 -3z"/>
<path d="M4783 3885 c-3 -9 -3 -19 1 -22 3 -4 6 1 6 11 0 28 43 16 51 -14 6
-21 7 -22 8 -4 2 39 -52 63 -66 29z"/>
<path d="M4871 3838 c1 -35 4 -53 6 -40 2 12 9 22 15 22 6 0 6 6 -2 15 -7 8
-10 24 -7 35 3 11 1 23 -4 26 -5 3 -8 -22 -8 -58z"/>
<path d="M4913 3894 c19 -6 24 -59 7 -67 -6 -3 -5 -4 2 -3 8 2 13 17 13 37 0
26 -4 34 -20 36 -16 1 -16 1 -2 -3z"/>
<path d="M4970 3885 c-14 -17 -5 -65 12 -65 9 0 9 3 0 12 -20 20 -14 28 21 29
l32 2 -35 7 c-27 5 -31 8 -18 14 9 4 22 4 29 0 8 -4 9 -3 5 4 -10 16 -31 15
-46 -3z"/>
<path d="M5053 3860 c0 -25 2 -35 4 -22 2 12 2 32 0 45 -2 12 -4 2 -4 -23z"/>
<path d="M5082 3894 c11 -3 18 -19 21 -42 l4 -37 -1 40 c-1 32 -5 40 -21 42
-15 1 -15 0 -3 -3z"/>
<path d="M5203 3885 c-5 -15 27 -49 37 -38 3 2 -3 9 -13 14 -22 13 -22 26 1
32 16 4 16 5 -1 6 -10 0 -20 -6 -24 -14z"/>
<path d="M5277 3893 c-3 -5 8 -8 23 -8 15 0 26 3 23 8 -2 4 -13 7 -23 7 -10 0
-21 -3 -23 -7z"/>
<path d="M5364 3860 c1 -26 6 -35 19 -36 11 -1 12 0 3 3 -8 2 -17 19 -19 36
-4 31 -4 31 -3 -3z"/>
<path d="M5413 3860 c0 -25 2 -35 4 -22 2 12 2 32 0 45 -2 12 -4 2 -4 -23z"/>
<path d="M5453 3860 c0 -25 2 -35 4 -22 2 12 2 32 0 45 -2 12 -4 2 -4 -23z"/>
<path d="M5510 3885 c-14 -17 -5 -65 12 -65 9 0 9 3 0 12 -19 19 -14 48 11 58
15 6 17 9 6 9 -9 1 -22 -6 -29 -14z"/>
<path d="M5586 3891 c-4 -5 2 -7 13 -4 10 3 22 0 25 -6 5 -7 -4 -11 -23 -11
-17 0 -31 -4 -31 -9 0 -19 12 -41 23 -41 7 0 7 4 -1 12 -19 19 -14 28 18 28
32 0 37 9 18 28 -14 14 -35 16 -42 3z"/>
<path d="M5891 3835 c1 -33 4 -48 6 -32 2 15 9 25 14 21 6 -3 5 3 -2 14 -15
23 -6 52 16 52 21 0 31 -29 16 -51 -6 -11 -7 -19 -1 -19 12 0 24 45 16 65 -3
10 -16 15 -36 13 l-30 -2 1 -61z"/>
<path d="M5981 3855 c2 -33 3 -35 6 -10 2 17 11 35 20 42 13 10 13 12 -6 10
-18 -1 -21 -7 -20 -42z"/>
<path d="M6047 3893 c-3 -5 8 -8 23 -8 15 0 26 3 23 8 -2 4 -13 7 -23 7 -10 0
-21 -3 -23 -7z"/>
<path d="M6131 3856 l2 -41 6 35 c4 22 12 36 24 38 14 3 17 -4 18 -35 l2 -38
6 35 c9 50 38 53 44 6 l4 -36 -1 37 -1 38 -52 1 -53 1 1 -41z"/>
<path d="M6273 3840 c0 -36 2 -50 4 -32 2 17 2 47 0 65 -2 17 -4 3 -4 -33z"/>
<path d="M6290 3896 c0 -2 9 -6 20 -9 11 -3 18 -1 14 4 -5 9 -34 13 -34 5z"/>
<path d="M6450 3861 c0 -23 2 -41 4 -41 8 0 12 71 4 76 -4 3 -8 -13 -8 -35z"/>
<path d="M6480 3896 c0 -2 7 -7 16 -10 8 -3 12 -2 9 4 -6 10 -25 14 -25 6z"/>
<path d="M6545 3889 c-4 -6 -4 -13 -1 -16 3 -4 6 -1 6 5 0 6 8 13 18 15 15 4
15 5 0 6 -9 0 -20 -4 -23 -10z"/>
<path d="M6590 3891 c0 -6 4 -12 8 -15 5 -3 9 1 9 9 0 8 -4 15 -9 15 -4 0 -8
-4 -8 -9z"/>
<path d="M6735 3889 c-4 -6 -4 -13 -1 -16 3 -4 6 -1 6 5 0 18 40 14 47 -4 3
-9 1 -25 -6 -35 -6 -11 -7 -19 -1 -19 16 0 23 49 10 65 -14 17 -46 20 -55 4z"/>
<path d="M6831 3886 c-16 -19 -10 -58 9 -63 12 -4 12 -3 2 5 -21 14 -11 57 13
57 24 0 34 -43 13 -57 -10 -8 -10 -9 2 -5 10 2 15 16 15 38 0 27 -4 35 -21 37
-11 2 -26 -4 -33 -12z"/>
<path d="M7052 3888 c-17 -17 -15 -43 5 -59 15 -13 15 -12 3 7 -7 12 -10 29
-7 38 7 18 42 22 50 6 3 -6 4 -5 3 2 -3 18 -38 22 -54 6z"/>
<path d="M7143 3860 c0 -25 2 -35 4 -22 2 12 2 32 0 45 -2 12 -4 2 -4 -23z"/>
<path d="M7241 3884 c0 -11 3 -14 6 -6 3 7 2 16 -1 19 -3 4 -6 -2 -5 -13z"/>
<path d="M7272 3888 c9 -7 19 -26 21 -43 3 -21 4 -18 3 10 -1 31 -5 41 -21 43
-18 4 -19 3 -3 -10z"/>
<path d="M7310 3896 c0 -2 7 -6 15 -10 8 -3 15 -1 15 4 0 6 -7 10 -15 10 -8 0
-15 -2 -15 -4z"/>
<path d="M7374 3886 c-9 -24 0 -59 16 -63 12 -4 12 -3 2 5 -8 5 -12 20 -10 33
4 33 40 32 49 -1 4 -14 7 -18 8 -8 2 31 -11 48 -35 48 -14 0 -27 -6 -30 -14z"/>
<path d="M7470 3885 c-14 -17 -5 -65 12 -65 9 0 9 3 0 12 -19 19 -14 48 11 58
15 6 17 9 6 9 -9 1 -22 -6 -29 -14z"/>
<path d="M7566 3891 c-4 -5 2 -7 13 -4 10 3 22 0 25 -6 5 -7 -4 -11 -23 -11
-35 0 -41 -20 -13 -41 14 -11 15 -11 5 1 -20 22 -15 30 18 30 24 0 30 3 25 16
-3 9 -6 18 -6 20 0 8 -39 4 -44 -5z"/>
<path d="M7641 3855 c2 -33 3 -35 6 -10 2 17 11 35 20 42 13 10 13 12 -6 10
-18 -1 -21 -7 -20 -42z"/>
<path d="M7701 3884 c0 -11 3 -14 6 -6 3 7 2 16 -1 19 -3 4 -6 -2 -5 -13z"/>
<path d="M7732 3888 c9 -7 19 -26 21 -43 3 -21 4 -18 3 10 -1 31 -5 41 -21 43
-18 4 -19 3 -3 -10z"/>
<path d="M7950 3886 c-15 -19 -9 -58 10 -63 12 -4 12 -3 2 5 -21 14 -11 57 13
57 24 0 34 -43 13 -56 -10 -7 -10 -9 0 -9 17 0 25 25 18 55 -7 28 -36 34 -56
11z"/>
<path d="M8130 3879 c-7 -11 -9 -23 -7 -26 3 -2 8 5 12 16 3 11 14 22 23 24
16 4 16 5 0 6 -10 0 -22 -8 -28 -20z"/>
<path d="M8183 3860 c0 -25 2 -35 4 -22 2 12 2 32 0 45 -2 12 -4 2 -4 -23z"/>
<path d="M8327 3893 c-3 -5 8 -8 23 -8 15 0 26 3 23 8 -2 4 -13 7 -23 7 -10 0
-21 -3 -23 -7z"/>
<path d="M6412 3860 c0 -14 2 -19 5 -12 2 6 2 18 0 25 -3 6 -5 1 -5 -13z"/>
<path d="M5148 3863 c7 -3 16 -2 19 1 4 3 -2 6 -13 5 -11 0 -14 -3 -6 -6z"/>
<path d="M5261 3859 c-1 -19 26 -45 36 -35 3 3 1 6 -6 6 -6 0 -16 10 -21 23
-6 15 -9 17 -9 6z"/>
<path d="M6092 3842 c-11 -25 -11 -25 4 -10 9 9 15 21 13 27 -2 6 -10 -2 -17
-17z"/>
<path d="M4484 3840 c0 -13 4 -16 10 -10 7 7 7 13 0 20 -6 6 -10 3 -10 -10z"/>
<path d="M4564 3849 c-3 -6 -2 -15 3 -20 5 -5 9 -1 9 11 0 23 -2 24 -12 9z"/>
<path d="M3780 3841 c0 -10 19 -25 25 -20 1 2 -3 10 -11 17 -8 7 -14 8 -14 3z"/>
<path d="M4780 3841 c0 -10 19 -25 25 -20 1 2 -3 10 -11 17 -8 7 -14 8 -14 3z"/>
<path d="M6543 3840 c2 -8 12 -16 23 -17 13 -2 15 -1 4 4 -8 3 -19 11 -23 17
-6 7 -7 6 -4 -4z"/>
<path d="M6730 3841 c0 -10 19 -25 25 -20 1 2 -3 10 -11 17 -8 7 -14 8 -14 3z"/>
<path d="M6047 3829 c7 -7 15 -10 18 -7 3 3 -2 9 -12 12 -14 6 -15 5 -6 -5z"/>
<path d="M6586 3793 c-6 -14 -5 -15 5 -6 7 7 10 15 7 18 -3 3 -9 -2 -12 -12z"/>
<path d="M4570 3676 c0 -19 -4 -22 -25 -19 -19 4 -25 0 -31 -21 -7 -31 1 -56
18 -56 10 0 10 2 0 9 -19 12 -11 55 11 59 21 4 34 -25 20 -48 -9 -13 -8 -17 3
-17 10 0 14 15 14 59 0 32 -2 58 -5 58 -3 0 -5 -11 -5 -24z"/>
<path d="M5863 3640 c0 -36 2 -50 4 -32 2 17 2 47 0 65 -2 17 -4 3 -4 -33z"/>
<path d="M6012 3640 c1 -48 2 -56 7 -30 8 48 38 54 44 8 l4 -33 -1 35 c-1 28
-5 35 -21 35 -13 0 -22 9 -26 25 -4 14 -7 -2 -7 -40z"/>
<path d="M5458 3667 c-7 -22 7 -80 20 -83 7 -1 8 0 2 3 -12 6 -13 60 -1 65 5
2 3 8 -4 15 -10 9 -14 9 -17 0z"/>
<path d="M6652 3664 c-7 -8 -8 -14 -3 -14 5 0 11 -10 13 -22 3 -21 4 -21 9 4
8 34 -2 50 -19 32z"/>
<path d="M7418 3670 c-5 -17 3 -90 11 -90 3 0 5 21 4 46 -1 46 -8 65 -15 44z"/>
<path d="M4644 3648 c-4 -6 2 -19 14 -29 28 -22 28 -29 0 -30 -19 -1 -20 -2
-4 -6 10 -3 23 0 30 7 8 9 6 16 -11 27 -28 19 -29 30 -5 36 15 4 15 5 0 6 -9
0 -20 -4 -24 -11z"/>
<path d="M4720 3646 c-14 -18 -10 -59 8 -62 7 -1 8 0 2 3 -19 9 -11 53 13 63
15 6 17 9 6 9 -9 1 -22 -6 -29 -13z"/>
<path d="M4791 3646 c-14 -17 -7 -66 9 -66 6 0 5 8 -1 19 -7 10 -9 26 -6 35 7
18 42 22 50 6 3 -6 4 -5 3 2 -4 19 -41 21 -55 4z"/>
<path d="M4921 3653 c-1 -6 -4 -20 -7 -30 -5 -17 -5 -17 6 0 6 10 9 23 6 30
-3 9 -5 9 -5 0z"/>
<path d="M4954 3646 c-9 -22 -1 -59 14 -62 7 -1 8 0 2 3 -21 10 -10 33 16 33
19 0 25 5 22 18 -4 22 -46 29 -54 8z m46 -6 c0 -5 -9 -10 -20 -10 -11 0 -20 5
-20 10 0 6 9 10 20 10 11 0 20 -4 20 -10z"/>
<path d="M5176 3651 c-3 -4 6 -6 19 -3 14 2 25 6 25 8 0 8 -39 4 -44 -5z"/>
<path d="M5241 3615 c2 -33 3 -35 6 -10 2 17 11 35 20 42 13 10 13 12 -6 10
-18 -1 -21 -7 -20 -42z"/>
<path d="M5300 3645 c-14 -17 -5 -65 12 -65 9 0 9 3 0 12 -20 20 -14 28 21 29
l32 2 -35 7 c-27 5 -31 8 -18 14 9 4 22 4 29 0 8 -4 9 -3 5 4 -10 16 -31 15
-46 -3z"/>
<path d="M5398 3653 c23 -5 31 -23 10 -23 -9 0 -10 -2 -2 -8 7 -4 14 -16 17
-27 3 -11 5 -2 4 20 -2 35 -5 40 -27 42 -22 1 -22 1 -2 -4z"/>
<path d="M5514 3646 c-9 -22 -1 -59 14 -62 7 -1 8 0 2 3 -21 10 -10 33 16 33
19 0 25 5 22 18 -4 22 -46 29 -54 8z m46 -6 c0 -5 -9 -10 -20 -10 -11 0 -20 5
-20 10 0 6 9 10 20 10 11 0 20 -4 20 -10z"/>
<path d="M5658 3653 c23 -5 31 -23 10 -23 -9 0 -10 -2 -2 -8 7 -4 14 -16 17
-27 3 -11 5 -2 4 20 -2 35 -5 40 -27 42 -22 1 -22 1 -2 -4z"/>
<path d="M5723 3620 c0 -25 2 -35 4 -22 2 12 2 32 0 45 -2 12 -4 2 -4 -23z"/>
<path d="M5752 3654 c11 -3 18 -19 21 -42 l4 -37 -1 40 c-1 32 -5 40 -21 42
-15 1 -15 0 -3 -3z"/>
<path d="M5816 3651 c-4 -5 3 -7 14 -4 23 6 26 13 6 13 -8 0 -17 -4 -20 -9z"/>
<path d="M5944 3648 c-4 -6 2 -19 14 -29 28 -22 28 -29 0 -30 -19 -1 -20 -2
-4 -6 10 -3 23 0 30 7 8 9 6 16 -11 27 -28 19 -29 30 -5 36 15 4 15 5 0 6 -9
0 -20 -4 -24 -11z"/>
<path d="M6123 3654 c20 -6 23 -24 5 -24 -9 0 -10 -2 -2 -8 7 -4 14 -16 17
-27 3 -11 5 -2 4 20 -2 32 -6 40 -22 42 -16 1 -16 1 -2 -3z"/>
<path d="M6183 3620 c0 -25 2 -35 4 -22 2 12 2 32 0 45 -2 12 -4 2 -4 -23z"/>
<path d="M6240 3645 c-14 -17 -5 -65 12 -65 9 0 9 3 0 12 -19 19 -14 28 16 29
l27 1 -30 8 c-24 5 -27 8 -13 14 9 4 22 4 29 0 8 -4 9 -3 5 4 -10 16 -31 15
-46 -3z"/>
<path d="M6367 3653 c-4 -3 -7 -11 -7 -17 0 -7 3 -7 8 0 4 7 16 14 27 17 19 5
19 5 -1 6 -11 0 -24 -2 -27 -6z"/>
<path d="M6436 3647 c3 -10 9 -15 12 -12 3 3 0 11 -7 18 -10 9 -11 8 -5 -6z"/>
<path d="M6496 3651 c-4 -5 2 -7 13 -4 10 3 22 0 25 -6 5 -7 -4 -11 -23 -11
-19 0 -31 -5 -31 -13 0 -20 22 -37 45 -36 17 1 17 2 -4 8 -38 10 -38 31 -1 31
25 0 31 3 26 16 -3 9 -6 18 -6 20 0 8 -39 4 -44 -5z"/>
<path d="M6580 3656 c0 -2 9 -6 20 -9 11 -3 20 -1 20 4 0 5 -9 9 -20 9 -11 0
-20 -2 -20 -4z"/>
<path d="M6736 3645 c4 -8 8 -15 10 -15 2 0 4 7 4 15 0 8 -4 15 -10 15 -5 0
-7 -7 -4 -15z"/>
<path d="M6786 3645 c-9 -26 -7 -32 5 -12 6 10 9 21 6 23 -2 3 -7 -2 -11 -11z"/>
<path d="M6826 3651 c-3 -4 6 -6 19 -3 14 2 25 6 25 8 0 8 -39 4 -44 -5z"/>
<path d="M6946 3647 c3 -10 9 -15 12 -12 3 3 0 11 -7 18 -10 9 -11 8 -5 -6z"/>
<path d="M6980 3653 c8 -3 19 -11 23 -17 6 -7 7 -6 4 4 -2 8 -12 16 -23 17
-13 2 -15 1 -4 -4z"/>
<path d="M7043 3620 c0 -25 2 -35 4 -22 2 12 2 32 0 45 -2 12 -4 2 -4 -23z"/>
<path d="M7101 3646 c-16 -19 -10 -58 9 -63 12 -4 12 -3 2 5 -22 15 -11 56 16
60 19 3 22 -1 22 -26 0 -17 -5 -33 -10 -35 -6 -3 -5 -4 2 -3 8 2 13 17 13 37
0 27 -4 35 -21 37 -11 2 -26 -4 -33 -12z"/>
<path d="M7224 3644 c8 -8 15 -9 23 -2 7 6 20 8 28 4 8 -3 15 -1 15 4 0 5 -17
8 -38 7 -30 -1 -36 -4 -28 -13z"/>
<path d="M7321 3598 c1 -35 4 -51 6 -35 3 18 9 25 16 20 7 -4 6 0 -2 10 -7 9
-11 26 -8 37 3 11 1 23 -4 26 -5 3 -8 -22 -8 -58z"/>
<path d="M7362 3654 c9 -3 19 -16 21 -30 4 -21 4 -21 3 3 -1 20 -7 28 -21 30
-14 1 -15 0 -3 -3z"/>
<path d="M7464 3649 c-3 -6 -1 -16 5 -22 9 -9 11 -8 6 5 -5 12 0 18 17 21 22
4 22 4 1 6 -12 0 -25 -4 -29 -10z"/>
<path d="M6848 3633 c-16 -2 -28 -8 -28 -12 0 -4 14 -6 30 -3 17 2 30 8 30 13
0 5 -1 8 -2 8 -2 -1 -15 -4 -30 -6z"/>
<path d="M5161 3619 c-1 -22 24 -42 46 -36 14 4 13 5 -5 6 -13 1 -26 10 -32
24 -6 15 -9 17 -9 6z"/>
<path d="M5801 3623 c-2 -25 12 -43 33 -42 20 0 20 1 2 8 -11 4 -23 16 -27 27
-4 10 -8 14 -8 7z"/>
<path d="M5375 3610 c-9 -15 4 -30 23 -29 15 1 14 2 -1 6 -11 3 -16 11 -13 19
6 16 0 19 -9 4z"/>
<path d="M5635 3610 c-9 -15 4 -30 23 -29 15 1 14 2 -1 6 -11 3 -16 11 -13 19
6 16 0 19 -9 4z"/>
<path d="M6570 3600 c0 -12 7 -20 18 -20 13 0 14 2 3 9 -7 5 -10 14 -7 20 4 6
2 11 -3 11 -6 0 -11 -9 -11 -20z"/>
<path d="M7494 3600 c0 -13 4 -16 10 -10 7 7 7 13 0 20 -6 6 -10 3 -10 -10z"/>
<path d="M4832 3594 c-7 -8 -8 -14 -3 -14 10 0 25 19 20 25 -2 1 -10 -3 -17
-11z"/>
<path d="M6360 3601 c0 -10 19 -25 25 -20 1 2 -3 10 -11 17 -8 7 -14 8 -14 3z"/>
<path d="M7000 3601 c0 -9 -9 -12 -25 -9 -14 3 -25 1 -25 -3 0 -13 48 -11 55
2 4 6 4 13 1 16 -3 4 -6 1 -6 -6z"/>
<path d="M4890 3590 c0 -5 5 -10 10 -10 6 0 10 5 10 10 0 6 -4 10 -10 10 -5 0
-10 -4 -10 -10z"/>
<path d="M6098 3588 c5 -5 16 -8 23 -6 8 3 3 7 -10 11 -17 4 -21 3 -13 -5z"/>
<path d="M6610 3590 c0 -5 5 -10 11 -10 5 0 7 5 4 10 -3 6 -8 10 -11 10 -2 0
-4 -4 -4 -10z"/>
<path d="M6660 3590 c0 -5 5 -10 11 -10 5 0 7 5 4 10 -3 6 -8 10 -11 10 -2 0
-4 -4 -4 -10z"/>
<path d="M6827 3589 c7 -7 15 -10 18 -7 3 3 -2 9 -12 12 -14 6 -15 5 -6 -5z"/>
<path d="M3100 1419 c0 -49 1 -50 28 -47 22 2 28 8 30 36 3 27 0 32 -17 32
-12 0 -21 7 -21 15 0 8 -4 15 -10 15 -5 0 -10 -23 -10 -51z m45 -12 c0 -26
-20 -25 -23 2 -3 16 1 22 10 19 7 -3 13 -12 13 -21z"/>
<path d="M3550 1454 c0 -8 -4 -13 -9 -10 -14 9 -33 -21 -29 -46 2 -17 11 -24
31 -26 26 -3 27 -2 27 47 0 28 -4 51 -10 51 -5 0 -10 -7 -10 -16z m0 -49 c0
-14 -4 -25 -9 -25 -12 0 -23 29 -15 41 10 18 24 9 24 -16z"/>
<path d="M5571 1423 c-1 -46 2 -53 18 -53 10 0 24 7 31 15 16 19 3 55 -20 55
-10 0 -21 8 -23 18 -3 9 -5 -7 -6 -35z m39 -12 c0 -23 -16 -36 -25 -21 -9 14
1 40 15 40 5 0 10 -9 10 -19z"/>
<path d="M5865 1457 c-9 -22 -2 -80 10 -84 6 -2 9 16 8 43 -2 50 -9 66 -18 41z"/>
<path d="M6020 1454 c0 -10 -6 -14 -14 -11 -21 8 -39 -19 -32 -48 5 -18 13
-25 31 -25 23 0 25 3 25 50 0 28 -2 50 -5 50 -3 0 -5 -7 -5 -16z m-5 -49 c0
-10 -6 -20 -12 -22 -8 -3 -13 5 -13 22 0 17 5 25 13 23 6 -3 12 -13 12 -23z"/>
<path d="M8030 1419 c0 -49 1 -50 28 -47 19 2 28 9 30 26 4 29 -15 53 -35 45
-12 -5 -15 -2 -10 10 3 9 2 17 -3 17 -6 0 -10 -23 -10 -51z m40 -14 c0 -14 -4
-25 -9 -25 -12 0 -23 29 -15 41 10 18 24 9 24 -16z"/>
<path d="M8480 1455 c0 -8 -8 -15 -19 -15 -22 0 -32 -30 -19 -54 5 -9 20 -16
33 -16 23 0 25 4 25 50 0 28 -4 50 -10 50 -5 0 -10 -7 -10 -15z m-2 -47 c-2
-13 -7 -23 -13 -23 -5 0 -11 10 -13 23 -2 15 2 22 13 22 11 0 15 -7 13 -22z"/>
<path d="M3398 1448 c-6 -19 6 -71 17 -75 8 -2 11 30 6 80 -1 12 -19 8 -23 -5z"/>
<path d="M7612 1448 c-7 -7 -12 -21 -12 -31 0 -10 -9 -30 -20 -44 -29 -37 -27
-63 3 -35 13 12 29 22 35 22 7 0 12 6 12 13 0 6 14 13 31 14 27 2 30 -1 26
-17 -3 -13 0 -20 9 -20 16 0 19 26 5 34 -5 3 -7 15 -4 26 3 11 0 27 -7 35 -15
18 -61 20 -78 3z"/>
<path d="M8327 1453 c-6 -11 4 -83 12 -83 3 0 6 18 6 39 -1 39 -9 60 -18 44z"/>
<path d="M2686 1434 c-3 -9 4 -16 19 -20 14 -3 25 -11 25 -16 0 -5 7 -3 15 6
16 16 21 31 7 22 -5 -3 -20 1 -35 9 -22 11 -26 11 -31 -1z"/>
<path d="M3043 1443 c-22 -8 -14 -21 9 -15 14 3 19 2 14 -6 -4 -7 -14 -12 -22
-12 -8 0 -14 -9 -14 -20 0 -15 6 -19 25 -18 21 2 25 7 25 34 0 32 -14 45 -37
37z m27 -47 c0 -11 -19 -15 -25 -6 -3 5 1 10 9 10 9 0 16 -2 16 -4z"/>
<path d="M3590 1439 c0 -5 5 -9 11 -9 7 0 5 -10 -5 -25 -22 -33 -21 -35 17
-34 18 1 24 3 14 6 -10 3 -16 10 -14 16 3 7 8 19 12 28 4 11 0 18 -14 22 -12
3 -21 1 -21 -4z"/>
<path d="M3662 1438 c-17 -17 -15 -58 4 -65 8 -3 21 0 27 7 10 10 8 12 -5 7
-10 -3 -20 -2 -23 3 -4 6 3 10 14 10 24 0 28 22 8 39 -10 8 -17 7 -25 -1z m25
-14 c-3 -3 -12 -4 -19 -1 -8 3 -5 6 6 6 11 1 17 -2 13 -5z"/>
<path d="M5431 1436 c-14 -17 -7 -36 15 -36 8 0 14 -5 14 -11 0 -6 -9 -8 -21
-4 -15 5 -19 4 -15 -4 9 -14 43 -14 52 1 4 6 -3 20 -17 31 -17 15 -19 18 -6
14 12 -5 17 -3 15 5 -6 18 -24 20 -37 4z"/>
<path d="M5505 1440 c-3 -5 2 -10 12 -10 15 0 14 -3 -6 -19 -28 -21 -21 -41
15 -41 22 0 25 4 23 28 -5 43 -29 66 -44 42z m25 -44 c0 -3 -4 -8 -10 -11 -5
-3 -10 -1 -10 4 0 6 5 11 10 11 6 0 10 -2 10 -4z"/>
<path d="M5655 1440 c-3 -5 3 -11 12 -13 15 -4 14 -6 -5 -12 -30 -10 -24 -39
9 -42 23 -1 24 1 21 32 -4 32 -26 53 -37 35z m25 -44 c0 -3 -4 -8 -10 -11 -5
-3 -10 -1 -10 4 0 6 5 11 10 11 6 0 10 -2 10 -4z"/>
<path d="M5720 1440 c-10 -6 -7 -9 11 -13 l24 -4 -23 -8 c-30 -10 -24 -39 9
-42 23 -1 24 1 21 32 -4 35 -20 49 -42 35z m30 -44 c0 -3 -4 -8 -10 -11 -5 -3
-10 -1 -10 4 0 6 5 11 10 11 6 0 10 -2 10 -4z"/>
<path d="M5910 1440 c-10 -6 -7 -9 11 -13 l24 -4 -23 -8 c-29 -10 -25 -40 6
-41 18 -1 22 4 22 31 0 34 -17 49 -40 35z m30 -44 c0 -3 -4 -8 -10 -11 -5 -3
-10 -1 -10 4 0 6 5 11 10 11 6 0 10 -2 10 -4z"/>
<path d="M6050 1442 c0 -6 6 -12 13 -15 10 -4 10 -7 0 -18 -22 -22 -15 -39 15
-38 16 1 20 3 10 6 -22 6 -22 8 -2 38 9 14 12 25 6 25 -6 0 -17 3 -26 6 -9 3
-16 2 -16 -4z"/>
<path d="M6120 1435 c-19 -22 -8 -60 18 -63 12 -2 22 1 22 7 0 6 -7 8 -15 5
-8 -4 -15 -2 -15 4 0 5 9 12 20 15 13 3 18 11 14 20 -8 22 -31 28 -44 12z"/>
<path d="M7903 1443 c-18 -6 -16 -32 2 -39 8 -4 15 -11 15 -16 0 -6 -7 -8 -15
-4 -8 3 -15 1 -15 -5 0 -6 10 -9 22 -7 31 4 35 34 6 44 -21 6 -22 7 -4 14 11
3 15 9 10 12 -5 3 -15 3 -21 1z"/>
<path d="M7973 1443 c-20 -7 -15 -23 5 -17 11 4 9 0 -7 -14 -28 -22 -21 -42
15 -42 20 0 24 5 24 29 0 31 -17 51 -37 44z m17 -53 c0 -5 -4 -10 -10 -10 -5
0 -10 5 -10 10 0 6 5 10 10 10 6 0 10 -4 10 -10z"/>
<path d="M8268 1443 c-14 -3 -18 -14 -17 -41 1 -35 2 -36 8 -8 9 42 29 44 33
4 3 -33 3 -33 9 -6 7 33 -9 56 -33 51z"/>
<path d="M2960 1424 c0 -9 9 -18 20 -21 11 -3 20 -10 20 -15 0 -5 -10 -6 -21
-3 -15 5 -19 4 -15 -4 10 -15 31 -14 45 3 10 11 7 18 -11 31 -15 12 -17 15 -5
12 9 -4 17 -2 17 3 0 6 -11 10 -25 10 -16 0 -25 -6 -25 -16z"/>
<path d="M3180 1431 c0 -5 10 -7 22 -3 14 3 19 2 14 -6 -4 -7 -14 -12 -22 -12
-8 0 -14 -9 -14 -20 0 -15 6 -19 25 -18 21 2 25 7 25 35 0 29 -3 33 -25 33
-14 0 -25 -4 -25 -9z m35 -41 c-3 -5 -10 -10 -16 -10 -5 0 -9 5 -9 10 0 6 7
10 16 10 8 0 12 -4 9 -10z"/>
<path d="M3250 1430 c0 -5 8 -7 18 -4 16 5 16 5 0 -9 -27 -22 -23 -47 7 -45
21 2 25 7 25 35 0 29 -3 33 -25 33 -14 0 -25 -4 -25 -10z m35 -40 c-3 -5 -10
-10 -16 -10 -5 0 -9 5 -9 10 0 6 7 10 16 10 8 0 12 -4 9 -10z"/>
<path d="M3320 1406 c0 -20 5 -36 10 -36 6 0 10 14 10 30 0 17 5 30 10 30 6 0
10 -13 10 -30 0 -16 5 -30 11 -30 6 0 9 14 7 33 -2 27 -8 33 -30 35 -26 3 -28
1 -28 -32z"/>
<path d="M3440 1430 c0 -5 8 -7 18 -4 16 5 16 5 0 -9 -27 -22 -23 -47 7 -45
21 2 25 7 25 35 0 29 -3 33 -25 33 -14 0 -25 -4 -25 -10z m30 -40 c0 -5 -4
-10 -10 -10 -5 0 -10 5 -10 10 0 6 5 10 10 10 6 0 10 -4 10 -10z"/>
<path d="M5152 1429 c5 -15 68 -26 68 -11 0 5 -6 9 -12 9 -7 0 -24 3 -37 7
-17 6 -22 5 -19 -5z"/>
<path d="M5792 1403 c1 -37 1 -37 5 -5 3 18 10 32 18 32 8 0 15 -14 18 -32 4
-32 4 -32 5 5 2 33 0 37 -23 37 -23 0 -25 -4 -23 -37z"/>
<path d="M8124 1433 c19 -5 18 -6 -4 -23 -27 -20 -19 -40 16 -40 22 0 25 4 22
33 -2 26 -8 32 -28 34 -18 1 -20 0 -6 -4z m16 -37 c0 -3 -4 -8 -10 -11 -5 -3
-10 -1 -10 4 0 6 5 11 10 11 6 0 10 -2 10 -4z"/>
<path d="M8194 1433 c19 -5 18 -6 -4 -23 -27 -20 -19 -40 16 -40 22 0 25 4 22
33 -2 26 -8 32 -28 34 -18 1 -20 0 -6 -4z m16 -37 c0 -3 -4 -8 -10 -11 -5 -3
-10 -1 -10 4 0 6 5 11 10 11 6 0 10 -2 10 -4z"/>
<path d="M8384 1433 c19 -5 18 -6 -4 -23 -27 -20 -19 -40 16 -40 22 0 25 4 22
33 -2 26 -8 32 -28 34 -18 1 -20 0 -6 -4z m16 -37 c0 -3 -4 -8 -10 -11 -5 -3
-10 -1 -10 4 0 6 5 11 10 11 6 0 10 -2 10 -4z"/>
<path d="M8523 1433 c15 -4 16 -6 2 -26 -21 -30 -19 -37 13 -36 21 0 23 2 9 7
-16 7 -16 9 -3 27 22 29 20 35 -11 34 -18 -1 -21 -3 -10 -6z"/>
<path d="M8575 1420 c-11 -35 32 -68 51 -38 5 8 2 9 -9 5 -9 -3 -19 -2 -22 3
-4 6 3 10 15 10 29 0 23 34 -7 38 -14 2 -23 -3 -28 -18z"/>
<path d="M2670 1372 c0 -4 8 -19 17 -32 16 -24 16 -25 -3 -8 -16 14 -22 15
-38 3 -10 -8 -22 -13 -25 -10 -4 2 -8 -5 -8 -17 -1 -13 3 -18 12 -14 7 2 16 0
18 -7 3 -9 9 -9 25 0 19 11 19 11 5 -18 -8 -16 -19 -27 -24 -24 -21 14 -7 -14
15 -28 23 -15 24 -15 28 8 3 13 2 22 -2 20 -4 -2 -7 1 -7 8 0 7 9 13 19 13 10
0 18 -4 18 -8 0 -4 4 -8 9 -8 5 0 7 8 5 18 -7 30 9 44 40 33 21 -9 25 -15 20
-35 -6 -26 11 -45 27 -29 12 12 -31 93 -49 93 -7 0 -15 7 -18 15 -4 8 -10 13
-14 10 -4 -3 -13 2 -20 10 -13 16 -50 21 -50 7z"/>
<path d="M5130 1374 c0 -14 38 -53 46 -46 5 4 -4 -8 -20 -26 -17 -17 -28 -32
-25 -32 2 0 19 -4 37 -9 29 -9 32 -8 27 8 -8 25 15 41 43 30 14 -6 22 -17 22
-33 0 -25 16 -43 28 -31 4 3 -1 20 -11 36 -9 17 -17 36 -17 44 0 7 -8 15 -17
19 -10 3 -31 14 -48 25 -29 19 -65 27 -65 15z"/>
<path d="M5103 1336 c-13 -6 -23 -19 -23 -29 0 -10 5 -15 10 -12 9 6 14 -8 11
-27 -2 -16 15 -6 36 21 21 27 21 29 5 43 -13 11 -22 12 -39 4z"/>
<path d="M7596 1324 c-3 -9 -6 -35 -6 -59 0 -34 5 -47 22 -59 30 -22 66 -20
106 4 29 18 32 23 21 36 -8 10 -15 12 -17 5 -5 -16 -22 -13 -22 4 0 17 -68 85
-85 85 -7 0 -16 -7 -19 -16z"/>
<path d="M5130 1250 c0 -7 -7 -10 -17 -6 -13 5 -11 0 6 -18 31 -33 37 -33 35
1 -1 26 -24 47 -24 23z"/>
<path d="M2620 967 c0 -10 44 -77 51 -77 3 0 6 19 6 43 1 41 1 41 -6 7 l-6
-35 -22 35 c-13 19 -23 32 -23 27z"/>
<path d="M3401 945 c0 -16 3 -25 7 -19 4 6 14 14 22 17 12 4 12 6 -2 6 -9 1
-19 7 -21 14 -3 6 -6 -1 -6 -18z"/>
<path d="M4077 963 c-4 -3 -6 -22 -6 -42 2 -30 3 -32 6 -8 2 15 9 27 14 27 5
0 10 -12 10 -27 1 -21 3 -18 8 12 7 39 3 62 -6 38 -3 -7 -9 -13 -14 -13 -6 0
-7 5 -4 10 7 11 2 13 -8 3z"/>
<path d="M5083 963 c12 -3 17 -16 19 -41 l1 -37 4 35 c3 19 10 38 16 42 7 4
-4 7 -23 7 -19 -1 -27 -3 -17 -6z"/>
<path d="M5728 958 c-2 -7 -1 -26 3 -43 6 -28 7 -28 9 -5 1 14 3 33 5 43 4 19
-11 24 -17 5z"/>
<path d="M5890 931 c0 -23 2 -41 4 -41 8 0 12 71 4 76 -4 3 -8 -13 -8 -35z"/>
<path d="M5940 938 c0 -30 -1 -31 -16 -12 -15 18 -15 18 -4 -3 18 -39 30 -36
30 6 0 23 -2 41 -5 41 -3 0 -5 -14 -5 -32z"/>
<path d="M6269 953 c-8 -10 -9 -14 -2 -10 8 5 13 -3 16 -25 3 -29 4 -28 5 10
2 47 0 49 -19 25z"/>
<path d="M6325 961 c-4 -7 0 -8 11 -4 13 5 16 2 12 -9 -4 -9 -2 -20 4 -26 14
-14 -1 -35 -21 -27 -13 5 -14 4 -3 -6 21 -22 43 9 34 45 -9 31 -26 44 -37 27z"/>
<path d="M7576 954 c-3 -9 -4 -19 -1 -22 3 -3 5 1 5 9 0 11 2 11 10 -1 5 -8
10 -10 10 -5 0 6 -4 16 -9 23 -6 11 -10 10 -15 -4z"/>
<path d="M7800 961 c0 -6 8 -7 17 -4 12 5 15 2 10 -10 -3 -9 -2 -19 2 -21 5
-3 8 4 7 17 -1 21 -36 39 -36 18z"/>
<path d="M7896 962 c-2 -4 4 -8 14 -8 10 0 16 4 14 8 -3 4 -9 8 -14 8 -5 0
-11 -4 -14 -8z"/>
<path d="M7982 930 c1 -29 2 -35 5 -17 2 15 10 27 18 27 8 0 16 -12 18 -27 l4
-28 2 28 c0 18 -5 30 -16 34 -10 4 -21 11 -25 17 -4 6 -7 -9 -6 -34z"/>
<path d="M8222 930 c1 -29 2 -35 5 -17 2 15 10 27 18 27 8 0 16 -12 18 -27 l4
-28 2 28 c0 18 -5 30 -16 34 -10 4 -21 11 -25 17 -4 6 -7 -9 -6 -34z"/>
<path d="M9002 930 c1 -29 2 -35 5 -17 2 15 10 27 18 27 8 0 16 -12 18 -27 l4
-28 2 28 c0 18 -5 30 -16 34 -10 4 -21 11 -25 17 -4 6 -7 -9 -6 -34z"/>
<path d="M2810 927 c0 -20 3 -38 8 -40 9 -6 8 61 -2 70 -3 3 -6 -10 -6 -30z"/>
<path d="M3263 925 c0 -22 2 -30 4 -17 2 12 2 30 0 40 -3 9 -5 -1 -4 -23z"/>
<path d="M3820 950 c0 -5 5 -10 11 -10 5 0 7 5 4 10 -3 6 -8 10 -11 10 -2 0
-4 -4 -4 -10z"/>
<path d="M7541 944 c0 -11 3 -14 6 -6 3 7 2 16 -1 19 -3 4 -6 -2 -5 -13z"/>
<path d="M8193 925 c0 -22 2 -30 4 -17 2 12 2 30 0 40 -3 9 -5 -1 -4 -23z"/>
<path d="M8497 953 c-3 -5 -1 -17 4 -28 7 -17 8 -17 8 8 1 27 -4 34 -12 20z"/>
<path d="M8650 927 c0 -20 3 -38 8 -40 9 -6 8 61 -2 70 -3 3 -6 -10 -6 -30z"/>
<path d="M8820 950 c0 -5 5 -10 11 -10 5 0 7 5 4 10 -3 6 -8 10 -11 10 -2 0
-4 -4 -4 -10z"/>
<path d="M2710 943 c8 -3 19 -11 23 -17 6 -7 7 -6 4 4 -2 8 -12 16 -23 17 -13
2 -15 1 -4 -4z"/>
<path d="M2758 938 c8 -9 11 -21 8 -26 -3 -5 0 -9 7 -9 7 0 13 8 13 18 0 10
-2 16 -5 14 -2 -3 -11 1 -20 8 -14 10 -14 10 -3 -5z"/>
<path d="M2868 905 c-2 -25 0 -45 4 -45 5 0 8 20 8 45 0 25 -2 45 -4 45 -2 0
-6 -20 -8 -45z"/>
<path d="M2908 943 c7 -3 16 -2 19 1 4 3 -2 6 -13 5 -11 0 -14 -3 -6 -6z"/>
<path d="M2981 918 c2 -28 2 -29 6 -8 3 14 10 28 17 32 7 5 5 8 -6 8 -14 0
-18 -8 -17 -32z"/>
<path d="M3027 943 c-4 -3 -7 -16 -7 -29 0 -23 25 -40 35 -23 4 5 1 8 -7 7
-21 -5 -22 40 -1 45 14 4 14 5 2 6 -9 0 -19 -2 -22 -6z"/>
<path d="M3085 939 c-4 -6 -4 -13 -1 -16 3 -4 6 -1 6 5 0 6 8 13 18 15 15 4
15 5 0 6 -9 0 -20 -4 -23 -10z"/>
<path d="M3225 940 c3 -5 8 -10 11 -10 2 0 4 5 4 10 0 6 -5 10 -11 10 -5 0 -7
-4 -4 -10z"/>
<path d="M3467 944 c-23 -23 7 -71 33 -53 12 8 11 9 -4 7 -10 -2 -21 3 -23 10
-3 7 4 12 17 12 13 0 20 5 18 13 -5 14 -31 21 -41 11z m30 -10 c-3 -3 -12 -4
-19 -1 -8 3 -5 6 6 6 11 1 17 -2 13 -5z"/>
<path d="M3527 943 c-12 -11 -8 -40 7 -52 10 -9 17 -7 27 6 12 16 12 17 -2 6
-9 -7 -19 -10 -22 -6 -13 13 -7 42 11 46 14 4 14 5 1 6 -9 0 -19 -2 -22 -6z"/>
<path d="M3598 943 c7 -3 16 -2 19 1 4 3 -2 6 -13 5 -11 0 -14 -3 -6 -6z"/>
<path d="M3641 917 c2 -29 2 -29 6 -5 4 23 8 26 38 24 19 -2 32 0 30 4 -2 4
-20 7 -40 8 -33 1 -35 0 -34 -31z"/>
<path d="M3737 944 c-23 -23 7 -71 33 -53 12 8 11 9 -4 7 -10 -2 -21 3 -23 10
-3 7 4 12 17 12 13 0 20 5 18 13 -5 14 -31 21 -41 11z m30 -10 c-3 -3 -12 -4
-19 -1 -8 3 -5 6 6 6 11 1 17 -2 13 -5z"/>
<path d="M3889 918 c4 -28 6 -29 9 -9 2 13 0 27 -5 32 -6 6 -7 -3 -4 -23z"/>
<path d="M4016 941 c-4 -5 3 -7 14 -4 23 6 26 13 6 13 -8 0 -17 -4 -20 -9z"/>
<path d="M4132 920 c0 -19 2 -27 5 -17 2 9 2 25 0 35 -3 9 -5 1 -5 -18z"/>
<path d="M4157 943 c-12 -11 -8 -40 7 -52 10 -9 17 -7 27 6 12 16 12 17 -2 6
-9 -7 -19 -10 -22 -6 -13 13 -7 42 11 46 14 4 14 5 1 6 -9 0 -19 -2 -22 -6z"/>
<path d="M4212 930 c0 -14 2 -19 5 -12 2 6 2 18 0 25 -3 6 -5 1 -5 -13z"/>
<path d="M4253 944 c21 -7 23 -24 3 -24 -21 0 -30 -20 -17 -33 9 -9 11 -8 6 6
-5 12 -2 17 10 17 9 0 13 -4 10 -10 -3 -5 -1 -10 5 -10 6 0 10 12 8 27 -2 19
-9 28 -23 30 -16 1 -16 1 -2 -3z"/>
<path d="M5179 918 c4 -28 6 -29 9 -9 2 13 0 27 -5 32 -6 6 -7 -3 -4 -23z"/>
<path d="M5232 936 c7 -8 15 -12 17 -11 5 6 -10 25 -20 25 -5 0 -4 -6 3 -14z"/>
<path d="M5300 942 c0 -4 9 -8 20 -8 11 0 20 4 20 8 0 4 -9 8 -20 8 -11 0 -20
-4 -20 -8z"/>
<path d="M5367 943 c-4 -3 -7 -16 -7 -29 0 -23 25 -40 35 -23 4 5 1 8 -6 7 -6
-2 -13 2 -16 9 -2 6 6 13 19 16 23 4 22 4 -2 6 -23 2 -24 3 -5 11 15 6 16 9 4
9 -9 1 -19 -2 -22 -6z"/>
<path d="M5421 918 c2 -30 2 -30 6 -6 3 22 9 26 33 26 16 -1 31 -7 34 -15 2
-7 3 -6 2 4 -1 13 -12 18 -39 20 -36 3 -37 2 -36 -29z"/>
<path d="M5533 944 c21 -7 23 -24 3 -24 -21 0 -30 -20 -17 -33 9 -9 11 -8 6 6
-5 12 -2 17 10 17 9 0 13 -4 10 -10 -3 -5 -1 -10 5 -10 6 0 10 12 8 27 -2 19
-9 28 -23 30 -16 1 -16 1 -2 -3z"/>
<path d="M5580 941 c0 -6 6 -8 14 -5 10 4 16 -3 19 -20 4 -26 4 -26 3 1 -1 18
-7 29 -18 31 -10 2 -18 -1 -18 -7z"/>
<path d="M5766 941 c-4 -5 3 -7 14 -4 23 6 26 13 6 13 -8 0 -17 -4 -20 -9z"/>
<path d="M5821 918 c2 -28 2 -29 6 -8 3 14 10 28 17 32 7 5 5 8 -6 8 -14 0
-18 -8 -17 -32z"/>
<path d="M5977 943 c-14 -14 -6 -23 21 -22 27 2 27 2 2 7 -23 4 -24 5 -5 13
14 5 16 8 4 8 -9 1 -19 -2 -22 -6z"/>
<path d="M6174 939 c-7 -11 12 -29 31 -29 6 1 1 6 -10 12 -19 11 -19 11 0 19
16 6 17 8 3 8 -9 1 -20 -4 -24 -10z"/>
<path d="M7647 944 c-13 -13 -7 -41 11 -55 16 -13 16 -13 2 5 -12 16 -13 20
-1 24 11 4 11 6 0 13 -11 7 -11 9 3 9 9 0 19 -5 21 -10 3 -6 4 -5 3 2 -3 15
-28 22 -39 12z"/>
<path d="M7710 942 c0 -4 9 -8 19 -8 11 0 17 4 15 8 -3 4 -12 8 -20 8 -8 0
-14 -4 -14 -8z"/>
<path d="M8046 941 c-3 -5 3 -7 14 -4 11 3 20 0 20 -6 0 -6 -6 -11 -14 -11
-21 0 -30 -20 -17 -33 9 -9 11 -8 6 6 -5 12 -2 17 10 17 9 0 13 -4 10 -10 -3
-5 -1 -10 5 -10 18 0 7 54 -12 58 -9 2 -19 -1 -22 -7z"/>
<path d="M8105 940 c-3 -5 3 -15 14 -22 16 -10 18 -15 8 -28 -11 -13 -10 -13
6 -1 18 14 18 15 -4 32 -22 16 -22 17 -3 22 15 4 16 5 2 6 -9 0 -20 -3 -23 -9z"/>
<path d="M8287 944 c-13 -13 -7 -41 11 -55 14 -11 15 -11 5 1 -19 20 -16 30 8
30 12 0 19 5 17 13 -5 14 -31 21 -41 11z m30 -10 c-3 -3 -12 -4 -19 -1 -8 3
-5 6 6 6 11 1 17 -2 13 -5z"/>
<path d="M8370 934 c0 -13 3 -14 15 -4 8 6 20 8 26 4 8 -4 9 -3 5 4 -11 18
-46 14 -46 -4z"/>
<path d="M8440 946 c0 -2 9 -6 20 -9 11 -3 18 -1 14 4 -5 9 -34 13 -34 5z"/>
<path d="M8548 943 c7 -3 16 -2 19 1 4 3 -2 6 -13 5 -11 0 -14 -3 -6 -6z"/>
<path d="M8592 920 c0 -19 2 -27 5 -17 2 9 2 25 0 35 -3 9 -5 1 -5 -18z"/>
<path d="M8682 920 c0 -19 2 -27 5 -17 2 9 2 25 0 35 -3 9 -5 1 -5 -18z"/>
<path d="M8723 943 c23 -6 22 -19 -3 -26 -11 -3 -20 -11 -19 -19 0 -10 2 -10
6 0 2 6 11 12 18 12 7 0 16 -6 18 -12 3 -7 6 2 6 20 1 27 -2 32 -21 31 -17 -1
-19 -2 -5 -6z"/>
<path d="M8857 944 c-11 -12 -8 -41 6 -52 18 -16 39 1 35 29 -3 23 -27 37 -41
23z m31 -26 c-2 -13 -7 -23 -13 -23 -5 0 -11 10 -13 23 -2 15 2 22 13 22 11 0
15 -7 13 -22z"/>
<path d="M8958 943 c7 -3 16 -2 19 1 4 3 -2 6 -13 5 -11 0 -14 -3 -6 -6z"/>
<path d="M9066 941 c-3 -5 3 -7 14 -4 11 3 20 0 20 -6 0 -6 -6 -11 -14 -11
-21 0 -30 -20 -17 -33 9 -9 11 -8 6 6 -5 12 -2 17 10 17 9 0 13 -4 10 -10 -3
-5 -1 -10 5 -10 18 0 7 54 -12 58 -9 2 -19 -1 -22 -7z"/>
<path d="M9130 941 c0 -6 6 -8 14 -5 10 4 16 -3 19 -20 4 -26 4 -26 3 1 -1 18
-7 29 -18 31 -10 2 -18 -1 -18 -7z"/>
<path d="M9190 946 c0 -2 9 -6 20 -9 11 -3 20 -1 20 4 0 5 -9 9 -20 9 -11 0
-20 -2 -20 -4z"/>
<path d="M9255 939 c-4 -6 -4 -13 -1 -16 3 -4 6 -1 6 5 0 6 8 13 18 15 15 4
15 5 0 6 -9 0 -20 -4 -23 -10z"/>
<path d="M3292 915 c0 -16 2 -22 5 -12 2 9 2 23 0 30 -3 6 -5 -1 -5 -18z"/>
<path d="M2690 916 c0 -7 8 -20 18 -27 16 -13 16 -12 3 4 -13 16 -13 20 0 28
11 7 11 9 -3 9 -10 0 -18 -6 -18 -14z"/>
<path d="M2900 928 c0 -2 9 -11 20 -21 11 -9 20 -13 20 -7 0 5 -9 14 -20 20
-11 6 -20 9 -20 8z"/>
<path d="M3048 923 c7 -3 16 -2 19 1 4 3 -2 6 -13 5 -11 0 -14 -3 -6 -6z"/>
<path d="M3432 902 c-11 -25 -11 -25 4 -10 9 9 15 21 13 27 -2 6 -10 -2 -17
-17z"/>
<path d="M3600 920 c-13 -8 -12 -10 3 -10 9 0 17 5 17 10 0 12 -1 12 -20 0z"/>
<path d="M4042 902 c-11 -25 -11 -25 4 -10 9 9 15 21 13 27 -2 6 -10 -2 -17
-17z"/>
<path d="M5205 920 c-3 -6 1 -7 9 -4 18 7 21 14 7 14 -6 0 -13 -4 -16 -10z"/>
<path d="M5792 902 c-11 -25 -11 -25 4 -10 9 9 15 21 13 27 -2 6 -10 -2 -17
-17z"/>
<path d="M6040 921 c0 -5 6 -14 14 -20 12 -10 13 -8 9 8 -5 21 -23 30 -23 12z"/>
<path d="M8941 919 c-1 -9 7 -23 17 -30 15 -12 16 -12 6 1 -6 8 -14 22 -17 30
-5 13 -6 12 -6 -1z"/>
<path d="M9181 919 c-1 -9 7 -23 17 -30 15 -12 16 -12 6 1 -6 8 -14 22 -17 30
-5 13 -6 12 -6 -1z"/>
<path d="M7555 900 c-3 -5 -1 -10 4 -10 6 0 11 5 11 10 0 6 -2 10 -4 10 -3 0
-8 -4 -11 -10z"/>
<path d="M7600 900 c0 -5 5 -10 10 -10 6 0 10 5 10 10 0 6 -4 10 -10 10 -5 0
-10 -4 -10 -10z"/>
<path d="M8370 886 c0 -31 6 -34 13 -6 3 11 1 23 -4 26 -5 3 -9 -6 -9 -20z"/>
<path d="M9218 887 c-3 -19 -2 -25 4 -19 6 6 8 18 6 28 -3 14 -5 12 -10 -9z"/>
<path d="M3930 886 c7 -7 13 -7 20 0 6 6 3 10 -10 10 -13 0 -16 -4 -10 -10z"/>
<path d="M5220 886 c7 -7 13 -7 20 0 6 6 3 10 -10 10 -13 0 -16 -4 -10 -10z"/>
<path d="M5980 886 c7 -7 13 -7 20 0 6 6 3 10 -10 10 -13 0 -16 -4 -10 -10z"/>
<path d="M6180 886 c7 -7 13 -7 20 0 6 6 3 10 -10 10 -13 0 -16 -4 -10 -10z"/>
<path d="M2643 793 c33 -5 31 -25 -4 -34 -15 -4 -17 -7 -7 -8 9 -1 24 -11 32
-23 9 -12 16 -18 16 -12 0 5 -5 15 -12 22 -8 8 -8 15 1 26 17 21 5 36 -27 35
l-27 -2 28 -4z"/>
<path d="M2937 793 c-10 -9 -9 -23 1 -23 5 0 9 7 9 15 0 17 -1 18 -10 8z"/>
<path d="M3393 761 c-1 -28 2 -39 8 -30 8 12 11 11 19 -1 6 -9 10 -10 10 -3 0
6 -6 18 -14 25 -8 8 -16 23 -18 34 -3 10 -5 -1 -5 -25z"/>
<path d="M3783 760 c0 -25 2 -35 4 -22 2 12 2 32 0 45 -2 12 -4 2 -4 -23z"/>
<path d="M3992 775 c0 -16 2 -22 5 -12 2 9 2 23 0 30 -3 6 -5 -1 -5 -18z"/>
<path d="M4161 758 c1 -24 3 -35 6 -25 6 24 27 21 47 -5 l17 -23 -11 23 c-6
12 -9 26 -6 31 3 4 -6 6 -19 3 -19 -3 -25 0 -25 13 0 13 6 16 25 13 14 -3 25
-1 25 3 0 5 -13 9 -30 9 -29 0 -30 -2 -29 -42z"/>
<path d="M5263 760 c0 -25 2 -35 4 -22 2 12 2 32 0 45 -2 12 -4 2 -4 -23z"/>
<path d="M6030 765 c-3 -22 -9 -39 -15 -38 -16 3 -18 35 -3 45 10 8 10 9 -2 5
-20 -5 -25 -41 -8 -55 23 -19 40 2 36 44 l-4 39 -4 -40z"/>
<path d="M6062 780 c0 -14 2 -19 5 -12 2 6 2 18 0 25 -3 6 -5 1 -5 -13z"/>
<path d="M6120 793 c0 -7 7 -21 15 -30 8 -10 21 -27 29 -38 14 -19 15 -16 14
30 -1 45 -1 47 -7 15 l-6 -35 -22 35 c-13 19 -23 29 -23 23z"/>
<path d="M6513 760 c0 -25 2 -35 4 -22 2 12 2 32 0 45 -2 12 -4 2 -4 -23z"/>
<path d="M7573 760 c0 -25 2 -35 4 -22 2 12 2 32 0 45 -2 12 -4 2 -4 -23z"/>
<path d="M8441 760 c0 -33 2 -41 9 -30 9 13 11 13 20 0 6 -9 10 -10 10 -3 0 6
-6 18 -14 25 -8 8 -16 23 -19 34 -2 10 -5 -1 -6 -26z"/>
<path d="M8857 793 c-4 -3 -7 -22 -7 -41 0 -44 6 -39 13 11 5 39 5 41 -6 30z"/>
<path d="M2870 780 c0 -5 5 -10 11 -10 5 0 7 5 4 10 -3 6 -8 10 -11 10 -2 0
-4 -4 -4 -10z"/>
<path d="M3750 757 c0 -20 3 -38 8 -40 9 -6 8 61 -2 70 -3 3 -6 -10 -6 -30z"/>
<path d="M4420 766 c0 -31 6 -34 13 -6 3 11 1 23 -4 26 -5 3 -9 -6 -9 -20z"/>
<path d="M5427 783 c-2 -5 0 -21 4 -38 7 -29 7 -29 8 8 1 35 -3 46 -12 30z"/>
<path d="M6480 756 c0 -19 3 -37 8 -40 4 -2 6 13 4 35 -5 48 -12 51 -12 5z"/>
<path d="M7540 757 c0 -20 3 -38 8 -40 9 -6 8 61 -2 70 -3 3 -6 -10 -6 -30z"/>
<path d="M7810 757 c0 -20 3 -38 8 -40 9 -6 8 61 -2 70 -3 3 -6 -10 -6 -30z"/>
<path d="M8060 780 c0 -5 5 -10 11 -10 5 0 7 5 4 10 -3 6 -8 10 -11 10 -2 0
-4 -4 -4 -10z"/>
<path d="M8755 780 c-3 -5 -1 -10 4 -10 6 0 11 5 11 10 0 6 -2 10 -4 10 -3 0
-8 -4 -11 -10z"/>
<path d="M2722 766 c7 -8 15 -12 17 -11 5 6 -10 25 -20 25 -5 0 -4 -6 3 -14z"/>
<path d="M2773 774 c23 -7 22 -20 -4 -27 -22 -6 -22 -29 -1 -33 7 -1 8 0 2 3
-5 2 -10 9 -10 14 0 14 28 11 34 -3 3 -7 4 0 3 17 -1 22 -7 30 -22 32 -16 1
-16 1 -2 -3z"/>
<path d="M2826 772 c-2 -4 4 -8 14 -8 10 0 16 4 14 8 -3 4 -9 8 -14 8 -5 0
-11 -4 -14 -8z"/>
<path d="M2965 770 c-3 -5 -2 -10 4 -10 5 0 13 5 16 10 3 6 2 10 -4 10 -5 0
-13 -4 -16 -10z"/>
<path d="M3006 771 c-3 -5 3 -7 14 -4 11 3 20 0 20 -6 0 -6 -6 -11 -14 -11
-21 0 -30 -20 -17 -33 9 -9 11 -8 6 6 -5 12 -2 17 10 17 9 0 13 -4 10 -10 -3
-5 -1 -10 5 -10 18 0 7 54 -12 58 -9 2 -19 -1 -22 -7z"/>
<path d="M3062 750 c0 -19 2 -27 5 -17 2 9 2 25 0 35 -3 9 -5 1 -5 -18z"/>
<path d="M3080 776 c0 -2 7 -7 16 -10 8 -3 12 -2 9 4 -6 10 -25 14 -25 6z"/>
<path d="M3129 748 c4 -28 6 -29 9 -9 2 13 0 27 -5 32 -6 6 -7 -3 -4 -23z"/>
<path d="M3170 773 c8 -3 19 -11 23 -17 6 -7 7 -6 4 4 -2 8 -12 16 -23 17 -13
2 -15 1 -4 -4z"/>
<path d="M3240 764 c0 -8 5 -12 10 -9 6 4 8 11 5 16 -9 14 -15 11 -15 -7z"/>
<path d="M3302 768 c-16 -16 -15 -33 3 -48 11 -9 19 -10 26 -3 8 8 6 11 -7 10
-13 -1 -19 5 -19 18 0 13 6 20 17 19 10 -1 15 2 12 7 -7 12 -18 11 -32 -3z"/>
<path d="M3360 750 c0 -16 2 -30 4 -30 2 0 6 14 8 30 3 17 1 30 -4 30 -4 0 -8
-13 -8 -30z"/>
<path d="M3486 771 c-4 -5 3 -7 14 -4 23 6 26 13 6 13 -8 0 -17 -4 -20 -9z"/>
<path d="M3545 769 c-4 -6 -4 -13 -1 -16 3 -4 6 -1 6 6 0 8 6 11 16 7 8 -3 12
-2 9 4 -8 13 -22 13 -30 -1z"/>
<path d="M3636 772 c-2 -4 4 -8 14 -8 10 0 16 4 14 8 -3 4 -9 8 -14 8 -5 0
-11 -4 -14 -8z"/>
<path d="M3690 751 c0 -17 4 -32 8 -35 4 -2 6 11 4 30 -5 42 -12 45 -12 5z"/>
<path d="M3832 750 c0 -19 2 -27 5 -17 2 9 2 25 0 35 -3 9 -5 1 -5 -18z"/>
<path d="M3897 774 c-14 -14 -7 -52 11 -59 14 -5 15 -4 5 6 -17 17 -16 49 1
49 8 0 17 -5 19 -10 3 -6 4 -5 3 2 -3 15 -28 22 -39 12z"/>
<path d="M3955 769 c-11 -16 -1 -19 13 -3 7 8 8 14 3 14 -5 0 -13 -5 -16 -11z"/>
<path d="M4072 750 c0 -19 2 -27 5 -17 2 9 2 25 0 35 -3 9 -5 1 -5 -18z"/>
<path d="M4247 774 c-4 -4 -7 -17 -7 -30 0 -24 28 -40 43 -25 6 6 2 9 -9 8
-13 -1 -20 6 -22 21 -3 23 21 32 31 12 3 -6 4 -5 3 2 -3 15 -28 22 -39 12z"/>
<path d="M4323 774 c21 -7 23 -24 3 -24 -8 0 -18 -5 -22 -11 -9 -16 10 -31 30
-23 25 9 18 58 -9 61 -16 1 -16 1 -2 -3z m12 -44 c-3 -5 -10 -10 -16 -10 -5 0
-9 5 -9 10 0 6 7 10 16 10 8 0 12 -4 9 -10z"/>
<path d="M4372 768 c-16 -16 -15 -33 3 -48 11 -9 19 -10 26 -3 8 8 6 11 -7 10
-13 -1 -19 5 -19 18 0 13 6 20 17 19 10 -1 15 2 12 7 -7 12 -18 11 -32 -3z"/>
<path d="M5080 770 c0 -5 7 -7 15 -4 8 4 15 2 15 -4 0 -6 -4 -12 -9 -14 -5 -1
-3 -9 5 -16 12 -11 14 -8 14 18 0 23 -4 30 -20 30 -11 0 -20 -4 -20 -10z"/>
<path d="M5141 764 c0 -11 3 -14 6 -6 3 7 2 16 -1 19 -3 4 -6 -2 -5 -13z"/>
<path d="M5172 761 c9 -15 9 -23 -2 -38 -13 -17 -13 -17 4 -2 18 17 15 59 -5
59 -5 0 -4 -9 3 -19z"/>
<path d="M5201 764 c0 -11 3 -14 6 -6 3 7 2 16 -1 19 -3 4 -6 -2 -5 -13z"/>
<path d="M5315 769 c-4 -6 -4 -13 -1 -16 3 -4 6 -1 6 5 0 6 8 13 18 15 15 4
15 5 0 6 -9 0 -20 -4 -23 -10z"/>
<path d="M5383 774 c9 -3 17 -10 17 -15 0 -5 -8 -9 -17 -10 -14 0 -15 -2 -3
-6 8 -3 19 -11 23 -17 4 -6 6 2 5 19 -2 21 -9 30 -23 32 -16 1 -16 1 -2 -3z"/>
<path d="M5462 750 c0 -19 2 -27 5 -17 2 9 2 25 0 35 -3 9 -5 1 -5 -18z"/>
<path d="M5487 774 c-13 -13 -7 -41 11 -55 14 -11 15 -11 5 1 -17 19 -16 50 1
50 8 0 17 -5 19 -10 3 -6 4 -5 3 2 -3 15 -28 22 -39 12z"/>
<path d="M5550 771 c0 -6 6 -8 14 -5 10 4 16 -3 19 -20 4 -26 4 -26 3 1 -1 18
-7 29 -18 31 -10 2 -18 -1 -18 -7z"/>
<path d="M5618 773 c7 -3 16 -2 19 1 4 3 -2 6 -13 5 -11 0 -14 -3 -6 -6z"/>
<path d="M5691 733 c0 -31 3 -41 8 -30 4 10 11 17 15 15 14 -5 30 28 23 46 -4
9 -16 16 -27 16 -17 0 -20 -6 -19 -47z m37 15 c-2 -13 -7 -23 -13 -23 -5 0
-11 10 -13 23 -2 15 2 22 13 22 11 0 15 -7 13 -22z"/>
<path d="M5757 774 c-12 -12 -8 -41 8 -54 11 -9 19 -10 26 -3 8 8 6 11 -7 10
-13 -1 -20 6 -22 21 -3 23 21 32 31 12 3 -6 4 -5 3 2 -3 15 -28 22 -39 12z"/>
<path d="M5833 774 c23 -7 22 -20 -4 -27 -22 -6 -22 -29 -1 -33 7 -1 8 0 2 3
-5 2 -10 9 -10 14 0 14 28 11 34 -3 3 -7 4 0 3 17 -1 22 -7 30 -22 32 -16 1
-16 1 -2 -3z"/>
<path d="M5937 774 c-14 -14 -7 -52 11 -59 14 -5 15 -4 5 6 -17 17 -16 49 1
49 8 0 17 -5 19 -10 3 -6 4 -5 3 2 -3 15 -28 22 -39 12z"/>
<path d="M6200 776 c0 -2 9 -6 20 -9 11 -3 18 -1 14 4 -5 9 -34 13 -34 5z"/>
<path d="M6280 766 c0 -9 5 -16 10 -16 6 0 10 4 10 9 0 6 -4 13 -10 16 -5 3
-10 -1 -10 -9z"/>
<path d="M6395 769 c-4 -6 -4 -13 -1 -16 3 -4 6 -1 6 6 0 8 7 11 15 7 8 -3 15
-1 15 4 0 13 -27 13 -35 -1z"/>
<path d="M6535 770 c3 -5 8 -10 11 -10 2 0 4 5 4 10 0 6 -5 10 -11 10 -5 0 -7
-4 -4 -10z"/>
<path d="M6577 773 c-11 -10 -8 -51 3 -58 5 -3 18 -1 27 5 17 10 16 10 -2 8
-27 -4 -34 38 -8 45 14 4 14 5 2 6 -9 0 -19 -2 -22 -6z"/>
<path d="M7637 774 c-14 -14 -7 -52 11 -59 14 -5 15 -4 5 6 -17 17 -16 49 1
49 8 0 17 -5 19 -10 3 -6 4 -5 3 2 -3 15 -28 22 -39 12z"/>
<path d="M7752 750 c0 -19 2 -27 5 -17 2 9 2 25 0 35 -3 9 -5 1 -5 -18z"/>
<path d="M7775 770 c3 -5 8 -10 11 -10 2 0 4 5 4 10 0 6 -5 10 -11 10 -5 0 -7
-4 -4 -10z"/>
<path d="M7847 774 c-4 -4 -7 -17 -7 -30 0 -24 28 -40 43 -25 6 6 2 9 -9 8
-13 -1 -20 6 -22 21 -3 23 21 32 31 12 3 -6 4 -5 3 2 -3 15 -28 22 -39 12z"/>
<path d="M7900 770 c0 -5 7 -7 15 -4 8 4 15 8 15 10 0 2 -7 4 -15 4 -8 0 -15
-4 -15 -10z"/>
<path d="M7942 750 c0 -19 2 -27 5 -17 2 9 2 25 0 35 -3 9 -5 1 -5 -18z"/>
<path d="M8007 774 c-14 -14 -7 -52 11 -59 14 -5 15 -4 5 6 -17 17 -16 49 1
49 8 0 17 -5 19 -10 3 -6 4 -5 3 2 -3 15 -28 22 -39 12z"/>
<path d="M8143 774 c23 -7 22 -20 -4 -27 -22 -6 -22 -29 -1 -33 7 -1 8 0 2 3
-5 2 -10 9 -10 14 0 14 28 11 34 -3 3 -7 4 0 3 17 -1 22 -7 30 -22 32 -16 1
-16 1 -2 -3z"/>
<path d="M8198 773 c7 -3 16 -2 19 1 4 3 -2 6 -13 5 -11 0 -14 -3 -6 -6z"/>
<path d="M8301 764 c0 -11 3 -14 6 -6 3 7 2 16 -1 19 -3 4 -6 -2 -5 -13z"/>
<path d="M8357 774 c-14 -14 -7 -52 11 -59 14 -5 15 -4 5 6 -17 17 -16 49 1
49 8 0 17 -5 19 -10 3 -6 4 -5 3 2 -3 15 -28 22 -39 12z"/>
<path d="M8502 750 c0 -19 2 -27 5 -17 2 9 2 25 0 35 -3 9 -5 1 -5 -18z"/>
<path d="M8525 770 c3 -5 8 -10 11 -10 2 0 4 5 4 10 0 6 -5 10 -11 10 -5 0 -7
-4 -4 -10z"/>
<path d="M8566 771 c-4 -5 3 -7 14 -4 23 6 26 13 6 13 -8 0 -17 -4 -20 -9z"/>
<path d="M8651 764 c0 -11 3 -14 6 -6 3 7 2 16 -1 19 -3 4 -6 -2 -5 -13z"/>
<path d="M8732 750 c0 -19 2 -27 5 -17 2 9 2 25 0 35 -3 9 -5 1 -5 -18z"/>
<path d="M8886 771 c-3 -5 2 -8 12 -7 11 1 17 -6 17 -19 0 -13 -6 -19 -19 -18
-13 1 -15 -2 -7 -10 17 -17 45 15 36 42 -6 21 -29 28 -39 12z"/>
<path d="M8941 748 c2 -28 2 -29 6 -8 3 14 10 28 17 32 7 5 5 8 -6 8 -14 0
-18 -8 -17 -32z"/>
<path d="M8980 758 c-11 -23 -11 -23 6 -3 11 14 18 16 21 8 3 -7 9 -13 15 -13
6 0 6 6 -2 15 -17 21 -27 19 -40 -7z"/>
<path d="M9110 773 c8 -3 19 -11 23 -17 6 -7 7 -6 4 4 -2 8 -12 16 -23 17 -13
2 -15 1 -4 -4z"/>
<path d="M9160 769 c0 -5 5 -7 10 -4 6 3 10 8 10 11 0 2 -4 4 -10 4 -5 0 -10
-5 -10 -11z"/>
<path d="M5891 761 c-11 -7 -9 -13 8 -30 11 -11 21 -17 21 -12 0 6 -5 13 -11
16 -6 4 -8 13 -5 21 6 16 6 17 -13 5z"/>
<path d="M2690 746 c0 -21 29 -41 41 -29 8 8 6 11 -7 10 -12 -1 -19 4 -18 16
1 9 -2 17 -7 17 -5 0 -9 -6 -9 -14z"/>
<path d="M3151 749 c-1 -25 27 -45 42 -30 9 10 8 11 -5 6 -13 -5 -21 0 -27 16
-6 16 -10 18 -10 8z"/>
<path d="M5232 732 c-11 -25 -11 -25 4 -10 9 9 15 21 13 27 -2 6 -10 -2 -17
-17z"/>
<path d="M5623 747 c9 -8 17 -18 17 -22 0 -4 -8 -4 -17 0 -14 5 -15 3 -6 -6
12 -12 33 -5 33 11 0 5 -10 14 -22 20 -21 10 -21 10 -5 -3z"/>
<path d="M6191 749 c-1 -25 27 -45 42 -30 9 10 8 11 -5 6 -13 -5 -21 0 -27 16
-6 16 -10 18 -10 8z"/>
<path d="M7612 740 c0 -14 2 -19 5 -12 2 6 2 18 0 25 -3 6 -5 1 -5 -13z"/>
<path d="M8203 747 c9 -8 17 -18 17 -22 0 -4 -8 -4 -17 0 -14 5 -15 3 -6 -6
12 -12 33 -5 33 11 0 5 -10 14 -22 20 -21 10 -21 10 -5 -3z"/>
<path d="M8601 748 c-1 -23 -21 -34 -32 -17 -6 9 -9 10 -9 2 0 -20 21 -26 37
-10 8 8 13 21 10 29 -4 9 -6 8 -6 -4z"/>
<path d="M9091 749 c-1 -25 27 -45 42 -30 9 10 8 11 -5 6 -13 -5 -21 0 -27 16
-6 16 -10 18 -10 8z"/>
<path d="M3484 739 c-3 -6 -1 -16 5 -22 9 -9 11 -8 6 5 -4 11 0 18 12 21 15 4
16 5 1 6 -9 0 -20 -4 -24 -10z"/>
<path d="M6419 741 c17 -11 -3 -25 -21 -15 -10 5 -10 4 -1 -6 10 -11 15 -11
27 0 17 13 13 30 -7 30 -8 0 -8 -3 2 -9z"/>
<path d="M7901 734 c0 -11 3 -14 6 -6 3 7 2 16 -1 19 -3 4 -6 -2 -5 -13z"/>
<path d="M3220 730 c0 -5 5 -10 10 -10 6 0 10 5 10 10 0 6 -4 10 -10 10 -5 0
-10 -4 -10 -10z"/>
<path d="M3261 724 c0 -11 3 -14 6 -6 3 7 2 16 -1 19 -3 4 -6 -2 -5 -13z"/>
<path d="M3959 728 c13 -17 41 -14 41 4 0 7 -5 6 -13 -1 -10 -8 -17 -7 -27 2
-12 10 -12 9 -1 -5z"/>
<path d="M5142 715 c0 -16 2 -22 5 -12 2 9 2 23 0 30 -3 6 -5 -1 -5 -18z"/>
<path d="M5202 715 c0 -16 2 -22 5 -12 2 9 2 23 0 30 -3 6 -5 -1 -5 -18z"/>
<path d="M6260 730 c0 -5 5 -10 10 -10 6 0 10 5 10 10 0 6 -4 10 -10 10 -5 0
-10 -4 -10 -10z"/>
<path d="M6301 724 c0 -11 3 -14 6 -6 3 7 2 16 -1 19 -3 4 -6 -2 -5 -13z"/>
<path d="M8281 724 c0 -11 3 -14 6 -6 3 7 2 16 -1 19 -3 4 -6 -2 -5 -13z"/>
<path d="M8310 730 c0 -5 5 -10 10 -10 6 0 10 5 10 10 0 6 -4 10 -10 10 -5 0
-10 -4 -10 -10z"/>
<path d="M8631 724 c0 -11 3 -14 6 -6 3 7 2 16 -1 19 -3 4 -6 -2 -5 -13z"/>
<path d="M8665 730 c-3 -5 -1 -10 4 -10 6 0 11 5 11 10 0 6 -2 10 -4 10 -3 0
-8 -4 -11 -10z"/>
<path d="M2830 716 c7 -7 13 -7 20 0 6 6 3 10 -10 10 -13 0 -16 -4 -10 -10z"/>
<path d="M3550 716 c7 -7 13 -7 20 0 6 6 3 10 -10 10 -13 0 -16 -4 -10 -10z"/>
<path d="M3640 716 c7 -7 13 -7 20 0 6 6 3 10 -10 10 -13 0 -16 -4 -10 -10z"/>
<path d="M8990 716 c7 -7 13 -7 20 0 6 6 3 10 -10 10 -13 0 -16 -4 -10 -10z"/>
<path d="M2652 605 c0 -16 2 -22 5 -12 2 9 2 23 0 30 -3 6 -5 -1 -5 -18z"/>
<path d="M2913 590 c0 -25 2 -35 4 -22 2 12 2 32 0 45 -2 12 -4 2 -4 -23z"/>
<path d="M3062 590 c0 -33 2 -39 7 -21 10 37 29 37 34 -1 l5 -33 -2 35 c-1 24
-6 35 -16 35 -8 0 -18 7 -22 15 -4 8 -6 -5 -6 -30z"/>
<path d="M3853 590 c0 -25 2 -35 4 -22 2 12 2 32 0 45 -2 12 -4 2 -4 -23z"/>
<path d="M5240 620 c0 -5 -9 -10 -20 -10 -17 0 -20 -6 -18 -37 1 -37 1 -37 5
-5 6 43 33 44 33 0 0 -43 7 -32 13 20 2 23 0 42 -4 42 -5 0 -9 -4 -9 -10z"/>
<path d="M5812 605 c0 -16 2 -22 5 -12 2 9 2 23 0 30 -3 6 -5 -1 -5 -18z"/>
<path d="M6603 585 c0 -27 2 -38 4 -22 2 15 2 37 0 50 -2 12 -4 0 -4 -28z"/>
<path d="M7540 624 c0 -5 7 -17 14 -27 13 -16 14 -16 27 0 12 14 12 16 0 8 -9
-5 -19 -2 -28 10 -7 11 -13 15 -13 9z"/>
<path d="M8013 590 c0 -25 2 -35 4 -22 2 12 2 32 0 45 -2 12 -4 2 -4 -23z"/>
<path d="M6220 587 c0 -20 3 -38 8 -40 9 -6 8 61 -2 70 -3 3 -6 -10 -6 -30z"/>
<path d="M6310 596 c0 -31 6 -34 13 -6 3 11 1 23 -4 26 -5 3 -9 -6 -9 -20z"/>
<path d="M6570 587 c0 -20 3 -38 8 -40 9 -6 8 61 -2 70 -3 3 -6 -10 -6 -30z"/>
<path d="M6843 613 c-19 -4 -23 -10 -21 -41 l1 -37 4 33 c6 42 33 44 33 2 0
-16 3 -30 8 -30 4 0 6 18 4 40 -2 22 -5 39 -6 39 0 -1 -11 -4 -23 -6z"/>
<path d="M7930 604 c0 -8 5 -12 10 -9 6 4 8 11 5 16 -9 14 -15 11 -15 -7z"/>
<path d="M8570 604 c0 -8 5 -12 10 -9 6 4 8 11 5 16 -9 14 -15 11 -15 -7z"/>
<path d="M8895 611 c-3 -5 -1 -12 5 -16 5 -3 10 1 10 9 0 18 -6 21 -15 7z"/>
<path d="M9080 587 c0 -20 3 -38 8 -40 9 -6 8 61 -2 70 -3 3 -6 -10 -6 -30z"/>
<path d="M2614 595 c-3 -8 -4 -20 -1 -27 3 -7 6 -3 6 9 1 12 7 24 14 26 9 4 9
6 -1 6 -7 1 -15 -6 -18 -14z"/>
<path d="M2682 598 c-16 -16 -15 -33 3 -48 11 -9 19 -10 26 -3 8 8 6 11 -7 10
-13 -1 -19 5 -19 18 0 13 6 20 17 19 10 -1 15 2 12 7 -7 12 -18 11 -32 -3z"/>
<path d="M2746 602 c-2 -4 4 -8 14 -8 10 0 16 4 14 8 -3 4 -9 8 -14 8 -5 0
-11 -4 -14 -8z"/>
<path d="M2795 600 c-9 -15 4 -30 23 -29 15 1 15 2 0 6 -10 2 -18 9 -18 15 0
5 7 7 16 4 8 -3 12 -2 9 4 -8 13 -22 13 -30 0z"/>
<path d="M2942 580 c0 -19 2 -27 5 -17 2 9 2 25 0 35 -3 9 -5 1 -5 -18z"/>
<path d="M2965 600 c3 -5 8 -10 11 -10 2 0 4 5 4 10 0 6 -5 10 -11 10 -5 0 -7
-4 -4 -10z"/>
<path d="M3154 598 c-4 -6 0 -16 9 -23 22 -16 22 -29 0 -20 -15 5 -16 4 -5 -6
10 -11 14 -11 25 0 10 10 9 15 -5 25 -22 16 -23 30 -2 22 8 -3 12 -2 9 4 -8
13 -22 13 -31 -2z"/>
<path d="M3242 598 c-16 -16 -15 -33 3 -48 11 -9 19 -10 26 -3 8 8 6 11 -7 10
-13 -1 -19 5 -19 18 0 13 6 20 17 19 10 -1 15 2 12 7 -7 12 -18 11 -32 -3z"/>
<path d="M3296 602 c-3 -6 2 -9 12 -8 11 1 17 -6 17 -19 0 -13 -6 -19 -19 -18
-13 1 -15 -2 -7 -10 18 -18 49 18 35 40 -13 21 -30 27 -38 15z"/>
<path d="M3414 596 c-3 -8 -4 -23 -1 -33 3 -12 5 -9 6 9 0 14 7 29 14 31 9 4
9 6 -1 6 -7 1 -15 -5 -18 -13z"/>
<path d="M3454 598 c-4 -6 0 -16 9 -23 22 -16 22 -29 0 -20 -15 5 -16 4 -5 -6
10 -11 14 -11 25 0 10 10 9 15 -5 25 -22 16 -23 30 -2 22 8 -3 12 -2 9 4 -8
13 -22 13 -31 -2z"/>
<path d="M3532 596 c7 -8 15 -12 17 -11 5 6 -10 25 -20 25 -5 0 -4 -6 3 -14z"/>
<path d="M3700 603 c8 -3 19 -11 23 -17 6 -7 7 -6 4 4 -2 8 -12 16 -23 17 -13
2 -15 1 -4 -4z"/>
<path d="M3937 603 c-4 -3 -7 -17 -7 -30 0 -26 26 -41 42 -25 8 8 5 9 -11 5
-17 -4 -21 -1 -21 20 0 16 7 27 18 30 14 4 14 5 1 6 -9 0 -19 -2 -22 -6z"/>
<path d="M3996 601 c-3 -5 3 -7 14 -4 11 3 20 0 20 -6 0 -6 -6 -11 -12 -11 -9
0 -10 -3 -2 -8 6 -4 14 -14 17 -22 4 -8 5 1 4 20 -2 34 -27 54 -41 31z"/>
<path d="M4057 603 c-4 -3 -6 -18 -6 -32 1 -21 2 -22 6 -6 3 11 10 26 15 33
11 12 -3 18 -15 5z"/>
<path d="M4223 603 c-7 -2 -13 -17 -12 -31 l1 -27 7 24 c9 35 29 37 34 4 l4
-28 -1 29 c-1 30 -11 38 -33 29z"/>
<path d="M4302 596 c7 -8 15 -12 17 -11 5 6 -10 25 -20 25 -5 0 -4 -6 3 -14z"/>
<path d="M5143 595 c-3 -9 -3 -19 1 -22 3 -4 6 1 6 10 0 8 6 18 13 20 9 4 9 6
-1 6 -7 1 -15 -6 -19 -14z"/>
<path d="M5273 595 c-3 -9 -3 -19 1 -22 3 -4 6 1 6 10 0 8 6 18 13 20 9 4 9 6
-1 6 -7 1 -15 -6 -19 -14z"/>
<path d="M5336 602 c-2 -4 4 -8 14 -8 10 0 16 4 14 8 -3 4 -9 8 -14 8 -5 0
-11 -4 -14 -8z"/>
<path d="M5503 575 c0 -22 2 -30 4 -17 2 12 2 30 0 40 -3 9 -5 -1 -4 -23z"/>
<path d="M5527 598 c2 -5 13 -6 23 -3 14 5 20 0 23 -20 4 -24 4 -24 3 2 -1 23
-6 28 -28 28 -15 1 -24 -3 -21 -7z"/>
<path d="M5622 596 c7 -8 15 -12 17 -11 5 6 -10 25 -20 25 -5 0 -4 -6 3 -14z"/>
<path d="M5722 598 c-16 -16 -15 -33 3 -48 11 -9 19 -10 26 -3 8 8 6 11 -7 10
-13 -1 -19 5 -19 18 0 13 6 20 17 19 10 -1 15 2 12 7 -7 12 -18 11 -32 -3z"/>
<path d="M5841 593 c7 -12 15 -20 18 -17 3 2 -3 12 -13 22 -17 16 -18 16 -5
-5z"/>
<path d="M5933 575 c0 -22 2 -30 4 -17 2 12 2 30 0 40 -3 9 -5 -1 -4 -23z"/>
<path d="M5986 602 c-2 -4 4 -8 14 -8 10 0 16 4 14 8 -3 4 -9 8 -14 8 -5 0
-11 -4 -14 -8z"/>
<path d="M6076 601 c-3 -5 3 -7 14 -4 11 3 20 1 20 -5 0 -5 -9 -12 -21 -15
-27 -7 -20 -32 10 -33 19 -1 22 3 19 30 -3 30 -29 48 -42 27z m29 -41 c-3 -5
-10 -10 -16 -10 -5 0 -9 5 -9 10 0 6 7 10 16 10 8 0 12 -4 9 -10z"/>
<path d="M6165 600 c-3 -5 3 -15 15 -22 26 -17 26 -32 -1 -25 -16 4 -19 3 -11
-5 12 -12 42 -4 42 11 0 6 -10 16 -22 22 -22 12 -22 12 -3 20 16 6 17 8 3 8
-9 1 -20 -3 -23 -9z"/>
<path d="M6256 601 c-4 -5 3 -7 14 -4 23 6 26 13 6 13 -8 0 -17 -4 -20 -9z"/>
<path d="M6360 603 c8 -3 19 -11 23 -17 6 -7 7 -6 4 4 -2 8 -12 16 -23 17 -13
2 -15 1 -4 -4z"/>
<path d="M6445 600 c-4 -6 -4 -14 -1 -17 3 -4 6 -1 6 5 0 23 29 12 33 -13 4
-23 4 -23 3 2 -1 29 -28 44 -41 23z"/>
<path d="M6627 603 c6 -4 13 -22 16 -38 4 -27 5 -27 3 4 0 21 -7 36 -16 38
-10 3 -11 2 -3 -4z"/>
<path d="M6667 604 c-4 -4 -7 -18 -7 -31 0 -26 25 -42 42 -25 7 7 4 10 -8 9
-13 -1 -20 6 -22 21 -3 23 21 32 31 12 3 -6 4 -5 3 2 -3 15 -28 22 -39 12z"/>
<path d="M6766 602 c-2 -4 4 -8 15 -8 10 0 19 4 19 8 0 4 -6 8 -14 8 -8 0 -17
-4 -20 -8z"/>
<path d="M7604 596 c-3 -8 -4 -21 -1 -28 3 -7 6 -3 6 10 1 22 25 31 34 12 3
-6 4 -5 3 2 -4 19 -35 22 -42 4z"/>
<path d="M7750 599 c0 -5 5 -7 10 -4 6 3 10 8 10 11 0 2 -4 4 -10 4 -5 0 -10
-5 -10 -11z"/>
<path d="M7812 596 c7 -8 15 -12 17 -11 5 6 -10 25 -20 25 -5 0 -4 -6 3 -14z"/>
<path d="M7880 606 c0 -2 9 -6 20 -9 11 -3 18 -1 14 4 -5 9 -34 13 -34 5z"/>
<path d="M8073 595 c-3 -9 -3 -19 1 -22 3 -4 6 1 6 10 0 10 5 17 10 17 6 0 10
-4 10 -10 0 -5 5 -10 11 -10 8 0 8 5 -1 15 -16 19 -29 19 -37 0z"/>
<path d="M8136 602 c-2 -4 4 -8 15 -8 10 0 19 4 19 8 0 4 -6 8 -14 8 -8 0 -17
-4 -20 -8z"/>
<path d="M8190 575 c0 -19 2 -35 4 -35 2 0 6 16 8 35 2 19 0 35 -4 35 -4 0 -8
-16 -8 -35z"/>
<path d="M8363 575 c0 -22 2 -30 4 -17 2 12 2 30 0 40 -3 9 -5 -1 -4 -23z"/>
<path d="M8462 598 c-16 -16 -15 -33 3 -48 11 -9 19 -10 26 -3 8 8 6 11 -7 10
-13 -1 -19 5 -19 18 0 13 6 20 17 19 10 -1 15 2 12 7 -7 12 -18 11 -32 -3z"/>
<path d="M8516 602 c-2 -4 4 -8 15 -8 10 0 19 4 19 8 0 4 -6 8 -14 8 -8 0 -17
-4 -20 -8z"/>
<path d="M8605 599 c-4 -6 -4 -13 -1 -16 3 -4 6 -1 6 5 0 6 8 13 18 15 15 4
15 5 0 6 -9 0 -20 -4 -23 -10z"/>
<path d="M8753 603 c-7 -2 -13 -17 -12 -31 l1 -27 7 24 c9 35 29 37 34 4 l4
-28 -1 29 c-1 30 -11 38 -33 29z"/>
<path d="M8812 598 c-17 -17 -15 -33 5 -49 15 -13 15 -12 3 8 -11 18 -12 24
-1 37 16 19 10 21 -7 4z"/>
<path d="M8993 595 c-3 -9 -3 -19 1 -22 3 -4 6 1 6 10 0 8 6 18 13 20 9 4 9 6
-1 6 -7 1 -15 -6 -19 -14z"/>
<path d="M9114 596 c-3 -8 -4 -23 -1 -33 3 -12 5 -9 6 9 0 14 7 29 14 31 9 4
9 6 -1 6 -7 1 -15 -5 -18 -13z"/>
<path d="M9153 595 c-3 -9 -3 -19 1 -22 3 -4 6 1 6 10 0 8 6 18 13 20 9 4 9 6
-1 6 -7 1 -15 -6 -19 -14z"/>
<path d="M9213 575 c0 -22 2 -30 4 -17 2 12 2 30 0 40 -3 9 -5 -1 -4 -23z"/>
<path d="M9235 600 c3 -5 8 -10 11 -10 2 0 4 5 4 10 0 6 -5 10 -11 10 -5 0 -7
-4 -4 -10z"/>
<path d="M9276 602 c-2 -4 4 -8 14 -8 10 0 16 4 14 8 -3 4 -9 8 -14 8 -5 0
-11 -4 -14 -8z"/>
<path d="M3351 578 c0 -15 3 -29 8 -32 13 -8 41 4 41 17 0 7 -4 7 -12 -1 -18
-18 -26 -15 -31 16 l-4 27 -2 -27z"/>
<path d="M3782 575 c0 -16 2 -22 5 -12 2 9 2 23 0 30 -3 6 -5 -1 -5 -18z"/>
<path d="M4092 570 c0 -19 2 -27 5 -17 2 9 2 25 0 35 -3 9 -5 1 -5 -18z"/>
<path d="M5871 578 c-1 -31 15 -46 32 -29 9 9 8 11 -5 6 -13 -5 -18 0 -21 22
l-4 28 -2 -27z"/>
<path d="M7702 575 c0 -16 2 -22 5 -12 2 9 2 23 0 30 -3 6 -5 -1 -5 -18z"/>
<path d="M7962 575 c0 -16 2 -22 5 -12 2 9 2 23 0 30 -3 6 -5 -1 -5 -18z"/>
<path d="M8342 575 c0 -16 2 -22 5 -12 2 9 2 23 0 30 -3 6 -5 -1 -5 -18z"/>
<path d="M8722 575 c0 -16 2 -22 5 -12 2 9 2 23 0 30 -3 6 -5 -1 -5 -18z"/>
<path d="M3501 579 c-1 -25 27 -45 42 -30 9 10 8 11 -5 6 -13 -5 -21 0 -27 16
-6 16 -10 18 -10 8z"/>
<path d="M3681 574 c0 -11 3 -14 6 -6 3 7 2 16 -1 19 -3 4 -6 -2 -5 -13z"/>
<path d="M4132 570 c0 -14 2 -19 5 -12 2 6 2 18 0 25 -3 6 -5 1 -5 -13z"/>
<path d="M4271 579 c-1 -25 27 -45 42 -30 9 10 8 11 -5 6 -13 -5 -21 0 -27 16
-6 16 -10 18 -10 8z"/>
<path d="M5591 579 c-1 -25 27 -45 42 -30 9 10 8 11 -5 6 -13 -5 -21 0 -27 16
-6 16 -10 18 -10 8z"/>
<path d="M6272 579 c-28 -11 -24 -34 6 -35 17 -1 22 4 22 22 0 13 -1 24 -2 23
-2 0 -14 -4 -26 -10z m13 -19 c-3 -5 -10 -10 -16 -10 -5 0 -9 5 -9 10 0 6 7
10 16 10 8 0 12 -4 9 -10z"/>
<path d="M6341 583 c-2 -34 29 -58 44 -33 3 6 -1 7 -9 4 -11 -4 -19 2 -25 17
-5 13 -10 19 -10 12z"/>
<path d="M7781 579 c-1 -25 27 -45 42 -30 9 10 8 11 -5 6 -13 -5 -21 0 -27 16
-6 16 -10 18 -10 8z"/>
<path d="M7893 577 c21 -17 21 -24 2 -30 -12 -4 -11 -5 1 -3 27 2 28 23 2 36
-21 10 -21 10 -5 -3z"/>
<path d="M8402 565 c0 -16 2 -22 5 -12 2 9 2 23 0 30 -3 6 -5 -1 -5 -18z"/>
<path d="M6764 569 c-3 -6 -2 -15 3 -20 13 -13 43 -1 43 17 0 16 -36 19 -46 3z
m31 -9 c-3 -5 -10 -10 -16 -10 -5 0 -9 5 -9 10 0 6 7 10 16 10 8 0 12 -4 9
-10z"/>
<path d="M8134 569 c-3 -6 -1 -16 5 -22 9 -9 11 -8 6 5 -4 11 0 18 12 21 15 4
16 5 1 6 -9 0 -20 -4 -24 -10z"/>
<path d="M8514 569 c-3 -6 -1 -16 5 -22 9 -9 11 -8 6 5 -4 11 0 18 12 21 15 4
16 5 1 6 -9 0 -20 -4 -24 -10z"/>
<path d="M2651 554 c0 -11 3 -14 6 -6 3 7 2 16 -1 19 -3 4 -6 -2 -5 -13z"/>
<path d="M3712 554 c-7 -8 -8 -14 -3 -14 10 0 25 19 20 25 -2 1 -10 -3 -17
-11z"/>
<path d="M3990 561 c0 -10 19 -25 25 -20 1 2 -3 10 -11 17 -8 7 -14 8 -14 3z"/>
<path d="M6408 563 c7 -3 16 -2 19 1 4 3 -2 6 -13 5 -11 0 -14 -3 -6 -6z"/>
<path d="M6440 561 c0 -10 19 -25 25 -20 1 2 -3 10 -11 17 -8 7 -14 8 -14 3z"/>
<path d="M6538 563 c7 -3 16 -2 19 1 4 3 -2 6 -13 5 -11 0 -14 -3 -6 -6z"/>
<path d="M6728 563 c7 -3 16 -2 19 1 4 3 -2 6 -13 5 -11 0 -14 -3 -6 -6z"/>
<path d="M7632 554 c-7 -8 -8 -14 -3 -14 10 0 25 19 20 25 -2 1 -10 -3 -17
-11z"/>
<path d="M8600 563 c0 -19 21 -27 33 -13 9 10 9 11 -2 5 -8 -4 -17 -2 -22 6
-6 9 -9 10 -9 2z"/>
<path d="M8842 545 c0 -16 2 -22 5 -12 2 9 2 23 0 30 -3 6 -5 -1 -5 -18z"/>
<path d="M9270 563 c0 -19 18 -25 37 -13 17 11 16 11 -1 5 -11 -3 -23 0 -28 7
-5 9 -8 10 -8 1z"/>
<path d="M2750 546 c7 -7 13 -7 20 0 6 6 3 10 -10 10 -13 0 -16 -4 -10 -10z"/>
<path d="M2797 549 c7 -7 15 -10 18 -7 3 3 -2 9 -12 12 -14 6 -15 5 -6 -5z"/>
<path d="M3637 541 c-4 -17 -3 -21 5 -13 5 5 8 16 6 23 -3 8 -7 3 -11 -10z"/>
<path d="M3750 550 c0 -5 5 -10 11 -10 5 0 7 5 4 10 -3 6 -8 10 -11 10 -2 0
-4 -4 -4 -10z"/>
<path d="M5150 546 c7 -7 13 -7 20 0 6 6 3 10 -10 10 -13 0 -16 -4 -10 -10z"/>
<path d="M5280 546 c7 -7 13 -7 20 0 6 6 3 10 -10 10 -13 0 -16 -4 -10 -10z"/>
<path d="M5340 546 c7 -7 13 -7 20 0 6 6 3 10 -10 10 -13 0 -16 -4 -10 -10z"/>
<path d="M5986 548 c3 -4 12 -8 20 -8 8 0 14 4 14 8 0 4 -9 8 -19 8 -11 0 -17
-4 -15 -8z"/>
<path d="M8080 546 c7 -7 13 -7 20 0 6 6 3 10 -10 10 -13 0 -16 -4 -10 -10z"/>
<path d="M8265 550 c3 -5 8 -10 11 -10 2 0 4 5 4 10 0 6 -5 10 -11 10 -5 0 -7
-4 -4 -10z"/>
<path d="M9000 546 c7 -7 13 -7 20 0 6 6 3 10 -10 10 -13 0 -16 -4 -10 -10z"/>
<path d="M9157 549 c7 -7 15 -10 18 -7 3 3 -2 9 -12 12 -14 6 -15 5 -6 -5z"/>
<path d="M3380 453 c0 -7 7 -21 15 -30 8 -10 21 -27 29 -38 14 -19 15 -17 14
25 0 38 -1 41 -7 15 l-6 -30 -22 35 c-13 19 -23 29 -23 23z"/>
<path d="M6072 415 c0 -39 2 -43 7 -21 9 42 29 44 34 4 l5 -33 -2 35 c-1 24
-6 35 -16 35 -8 0 -18 7 -22 15 -4 8 -6 -7 -6 -35z"/>
<path d="M6833 448 c-5 -7 -6 -29 -2 -48 6 -35 6 -35 8 -5 2 17 4 38 6 48 4
20 1 22 -12 5z"/>
<path d="M8897 453 c-4 -3 -7 -24 -7 -46 0 -51 6 -45 13 11 5 44 4 46 -6 35z"/>
<path d="M3160 417 c0 -20 3 -38 8 -40 9 -6 8 61 -2 70 -3 3 -6 -10 -6 -30z"/>
<path d="M4100 431 c0 -25 6 -27 13 -6 4 8 2 17 -3 20 -6 4 -10 -3 -10 -14z"/>
<path d="M6040 434 c0 -8 5 -12 10 -9 6 4 8 11 5 16 -9 14 -15 11 -15 -7z"/>
<path d="M6320 410 c0 -22 3 -40 8 -40 4 0 6 18 4 40 -2 22 -6 40 -8 40 -2 0
-4 -18 -4 -40z"/>
<path d="M6713 410 c0 -25 2 -35 4 -22 2 12 2 32 0 45 -2 12 -4 2 -4 -23z"/>
<path d="M7661 410 c1 -38 2 -40 8 -16 9 42 29 44 34 4 l5 -33 -2 35 c-1 24
-6 35 -16 35 -8 0 -18 5 -22 10 -4 6 -7 -10 -7 -35z"/>
<path d="M8383 410 c0 -25 2 -35 4 -22 2 12 2 32 0 45 -2 12 -4 2 -4 -23z"/>
<path d="M9040 417 c0 -20 3 -38 8 -40 9 -6 8 61 -2 70 -3 3 -6 -10 -6 -30z"/>
<path d="M2623 433 c-7 -2 -12 -19 -12 -36 l1 -32 7 29 c8 39 29 44 34 9 l4
-28 -1 29 c-1 30 -11 38 -33 29z"/>
<path d="M2712 428 c-16 -16 -15 -33 3 -48 11 -9 19 -10 26 -3 8 8 6 11 -7 10
-13 -1 -19 5 -19 18 0 13 6 20 17 19 10 -1 15 2 12 7 -7 12 -18 11 -32 -3z"/>
<path d="M2780 436 c0 -2 7 -7 16 -10 8 -3 12 -2 9 4 -6 10 -25 14 -25 6z"/>
<path d="M2820 429 c0 -5 5 -7 10 -4 6 3 10 8 10 11 0 2 -4 4 -10 4 -5 0 -10
-5 -10 -11z"/>
<path d="M2937 428 c2 -5 13 -6 23 -3 14 5 20 0 23 -20 4 -24 4 -24 3 2 -1 23
-6 28 -28 28 -15 1 -24 -3 -21 -7z"/>
<path d="M3013 433 c-8 -3 -13 -22 -13 -46 0 -23 4 -37 8 -31 4 6 14 14 22 17
12 4 11 6 -2 6 -21 1 -24 31 -6 49 13 13 11 14 -9 5z"/>
<path d="M3130 430 c-9 -6 -10 -10 -3 -10 6 0 15 5 18 10 8 12 4 12 -15 0z"/>
<path d="M3196 431 c-3 -5 3 -7 14 -4 11 3 20 0 20 -6 0 -6 -6 -11 -12 -11 -9
0 -10 -3 -2 -8 6 -4 14 -14 17 -22 4 -8 5 1 4 20 -2 34 -27 54 -41 31z"/>
<path d="M3263 433 c-7 -2 -13 -17 -12 -31 l1 -27 7 24 c9 35 29 37 34 4 l4
-28 -1 29 c-1 30 -11 38 -33 29z"/>
<path d="M3462 428 c-16 -16 -15 -33 3 -48 11 -9 19 -10 26 -3 8 8 6 11 -6 10
-10 -1 -19 6 -20 15 -4 23 15 34 27 17 8 -12 9 -12 6 0 -6 20 -21 24 -36 9z"/>
<path d="M3545 430 c-4 -6 -11 -8 -16 -5 -5 3 -6 -1 -3 -10 4 -8 0 -23 -7 -32
-13 -15 -12 -15 8 -3 12 8 19 18 16 22 -2 5 1 15 7 23 7 8 10 15 7 15 -3 0 -9
-5 -12 -10z"/>
<path d="M3570 429 c0 -5 5 -7 10 -4 6 3 10 8 10 11 0 2 -4 4 -10 4 -5 0 -10
-5 -10 -11z"/>
<path d="M3664 428 c-4 -6 0 -16 9 -23 22 -16 21 -22 0 -28 -16 -4 -16 -5 -1
-6 24 -2 34 20 15 34 -21 15 -22 29 -1 21 8 -3 12 -2 9 4 -8 13 -22 13 -31 -2z"/>
<path d="M3752 428 c-7 -7 -12 -19 -11 -27 0 -10 4 -6 10 8 6 15 14 21 25 17
8 -3 12 -2 9 4 -8 13 -18 13 -33 -2z"/>
<path d="M3805 430 c-3 -6 1 -7 9 -4 11 4 19 -2 25 -17 6 -14 10 -18 10 -8 2
28 -31 50 -44 29z"/>
<path d="M3888 428 c7 -7 12 -23 13 -37 0 -15 3 -20 6 -13 7 19 -6 62 -19 62
-9 0 -9 -3 0 -12z"/>
<path d="M3932 428 c-17 -17 -15 -48 4 -55 8 -3 20 -1 26 5 8 8 5 9 -11 5 -19
-5 -22 -2 -19 18 2 16 9 24 20 23 10 -1 15 2 12 7 -7 12 -18 11 -32 -3z"/>
<path d="M3983 425 c-3 -9 -3 -19 1 -22 3 -4 6 1 6 10 0 20 11 22 30 5 12 -11
12 -10 1 5 -17 21 -30 22 -38 2z"/>
<path d="M4072 418 c7 -15 15 -23 17 -17 2 6 -4 18 -13 27 -15 15 -15 15 -4
-10z"/>
<path d="M4137 433 c-12 -12 -7 -22 16 -33 20 -10 20 -10 5 3 -22 18 -23 31
-2 23 8 -3 12 -2 9 4 -7 12 -19 13 -28 3z"/>
<path d="M4226 432 c-2 -4 4 -8 14 -8 10 0 16 4 14 8 -3 4 -9 8 -14 8 -5 0
-11 -4 -14 -8z"/>
<path d="M4345 429 c-4 -6 -5 -12 -2 -15 2 -3 7 2 10 11 7 17 1 20 -8 4z"/>
<path d="M5109 402 c5 -34 6 -35 9 -8 2 16 0 32 -5 37 -5 5 -7 -7 -4 -29z"/>
<path d="M5176 432 c-3 -6 2 -9 12 -8 11 1 17 -6 17 -19 0 -13 -6 -19 -19 -18
-13 1 -15 -2 -7 -10 18 -18 49 18 35 40 -13 21 -30 27 -38 15z"/>
<path d="M5235 429 c-4 -6 -4 -13 -1 -16 3 -4 6 -1 6 6 0 8 6 11 16 7 8 -3 12
-2 9 4 -8 13 -22 13 -30 -1z"/>
<path d="M5360 430 c-9 -6 -10 -10 -3 -10 6 0 15 5 18 10 8 12 4 12 -15 0z"/>
<path d="M5510 431 c13 -10 13 -12 0 -21 -9 -6 -10 -10 -3 -10 6 0 14 -8 17
-17 2 -10 4 -3 3 16 -1 21 -8 36 -17 38 -13 4 -13 3 0 -6z"/>
<path d="M5550 429 c-12 -9 -12 -10 4 -5 11 4 23 1 28 -6 7 -10 9 -10 6 1 -6
20 -20 23 -38 10z"/>
<path d="M5726 432 c-2 -4 4 -8 14 -8 10 0 16 4 14 8 -3 4 -9 8 -14 8 -5 0
-11 -4 -14 -8z"/>
<path d="M5775 431 c-3 -6 0 -8 8 -5 8 3 18 1 22 -5 3 -6 0 -11 -7 -11 -10 0
-10 -2 1 -9 10 -7 10 -10 1 -16 -7 -4 -17 -1 -22 6 -8 12 -9 11 -5 -1 2 -8 14
-16 26 -16 19 -1 22 3 19 30 -3 31 -30 48 -43 27z"/>
<path d="M5896 432 c-3 -6 2 -9 12 -8 11 1 17 -6 17 -19 0 -13 -6 -19 -19 -18
-13 1 -15 -2 -7 -10 18 -18 49 18 35 40 -13 21 -30 27 -38 15z"/>
<path d="M5978 428 c7 -7 12 -23 13 -37 0 -15 3 -20 6 -13 7 19 -6 62 -19 62
-9 0 -9 -3 0 -12z"/>
<path d="M6160 431 c13 -10 13 -12 0 -21 -9 -6 -10 -10 -3 -10 6 0 14 -8 17
-17 2 -10 4 -3 3 16 -1 21 -8 36 -17 38 -13 4 -13 3 0 -6z"/>
<path d="M6433 432 c16 -7 16 -9 3 -27 -21 -28 -20 -35 7 -34 17 1 18 2 4 6
-15 4 -16 6 -2 26 20 29 19 37 -7 36 -20 0 -20 -1 -5 -7z"/>
<path d="M6483 425 c-3 -9 -3 -19 1 -22 3 -4 6 1 6 10 0 19 15 23 25 7 3 -5 1
-10 -6 -10 -7 0 -10 -3 -6 -6 3 -3 11 -3 17 1 8 5 8 11 -1 21 -15 18 -28 18
-36 -1z"/>
<path d="M6544 428 c-4 -6 0 -16 9 -23 21 -15 22 -29 2 -21 -8 3 -15 1 -15 -4
0 -14 27 -12 36 2 4 6 0 16 -9 23 -21 15 -22 29 -1 21 8 -3 12 -2 9 4 -8 13
-22 13 -31 -2z"/>
<path d="M6635 431 c-4 -7 0 -8 11 -4 13 5 16 2 12 -8 -3 -8 -1 -23 3 -34 7
-15 8 -12 6 14 -2 34 -19 51 -32 32z"/>
<path d="M6772 428 c-16 -16 -15 -33 3 -48 11 -9 19 -10 26 -3 8 8 6 11 -7 10
-13 -1 -19 5 -19 18 0 13 6 20 17 19 10 -1 15 2 12 7 -7 12 -18 11 -32 -3z"/>
<path d="M7607 433 c-4 -3 -7 -11 -7 -17 0 -6 4 -5 9 3 11 18 31 5 31 -20 0
-21 -25 -26 -33 -6 -4 9 -6 9 -6 -1 -1 -8 8 -16 19 -19 11 -3 17 -10 14 -15
-3 -5 -13 -7 -23 -3 -12 5 -13 4 -4 -6 10 -10 15 -9 28 1 20 17 20 76 -1 84
-19 7 -19 7 -27 -1z"/>
<path d="M7819 408 c4 -28 6 -29 9 -9 2 13 0 27 -5 32 -6 6 -7 -3 -4 -23z"/>
<path d="M7856 432 c-3 -6 2 -9 12 -8 11 1 17 -6 17 -19 0 -13 -6 -19 -19 -18
-13 1 -15 -2 -7 -10 18 -18 49 18 35 40 -13 21 -30 27 -38 15z"/>
<path d="M8026 432 c-2 -4 4 -8 14 -8 10 0 16 4 14 8 -3 4 -9 8 -14 8 -5 0
-11 -4 -14 -8z"/>
<path d="M8105 430 c3 -5 8 -10 11 -10 2 0 4 5 4 10 0 6 -5 10 -11 10 -5 0 -7
-4 -4 -10z"/>
<path d="M8144 426 c-10 -26 1 -51 24 -54 16 -3 22 2 21 15 0 10 -3 13 -6 6
-9 -23 -33 -14 -33 12 0 27 9 32 28 13 8 -8 12 -8 12 -1 0 6 -7 14 -16 17 -22
8 -24 8 -30 -8z"/>
<path d="M8503 433 c-7 -2 -12 -19 -12 -36 l1 -32 7 29 c8 39 29 44 34 9 l4
-28 -1 29 c-1 30 -11 38 -33 29z"/>
<path d="M8560 425 c-17 -20 -9 -46 18 -56 19 -7 22 -5 21 14 0 12 -3 16 -6
10 -2 -7 -11 -13 -19 -13 -17 0 -19 31 -2 48 7 7 9 12 6 12 -3 0 -11 -7 -18
-15z"/>
<path d="M8707 433 c-4 -3 -7 -11 -7 -17 0 -6 4 -5 9 3 11 18 31 5 31 -20 0
-20 -25 -27 -33 -9 -3 6 -4 5 -3 -2 4 -20 40 -15 44 5 6 28 -24 58 -41 40z"/>
<path d="M8830 430 c-9 -6 -10 -10 -3 -10 6 0 15 5 18 10 8 12 4 12 -15 0z"/>
<path d="M8985 430 c-9 -15 4 -30 23 -29 15 1 15 2 0 6 -10 2 -18 9 -18 15 0
5 7 7 16 4 8 -3 12 -2 9 4 -8 13 -22 13 -30 0z"/>
<path d="M2912 400 c0 -19 2 -27 5 -17 2 9 2 25 0 35 -3 9 -5 1 -5 -18z"/>
<path d="M3101 408 c-1 -29 -25 -39 -34 -15 -4 9 -6 9 -6 -1 -1 -17 28 -27 41
-14 5 5 8 20 5 33 -4 22 -4 22 -6 -3z"/>
<path d="M3632 400 c0 -19 2 -27 5 -17 2 9 2 25 0 35 -3 9 -5 1 -5 -18z"/>
<path d="M3862 400 c0 -19 2 -27 5 -17 2 9 2 25 0 35 -3 9 -5 1 -5 -18z"/>
<path d="M4041 392 c-1 -36 1 -41 13 -30 8 7 10 15 6 18 -4 3 -10 16 -13 30
-3 16 -5 10 -6 -18z"/>
<path d="M4282 405 c0 -16 2 -22 5 -12 2 9 2 23 0 30 -3 6 -5 -1 -5 -18z"/>
<path d="M5291 407 c-1 -30 23 -47 41 -29 8 8 5 9 -10 5 -17 -4 -21 0 -25 24
l-4 28 -2 -28z"/>
<path d="M5392 400 c0 -19 2 -27 5 -17 2 9 2 25 0 35 -3 9 -5 1 -5 -18z"/>
<path d="M5692 400 c0 -19 2 -27 5 -17 2 9 2 25 0 35 -3 9 -5 1 -5 -18z"/>
<path d="M5862 405 c0 -16 2 -22 5 -12 2 9 2 23 0 30 -3 6 -5 -1 -5 -18z"/>
<path d="M5952 400 c0 -19 2 -27 5 -17 2 9 2 25 0 35 -3 9 -5 1 -5 -18z"/>
<path d="M6352 400 c0 -19 2 -27 5 -17 2 9 2 25 0 35 -3 9 -5 1 -5 -18z"/>
<path d="M6372 405 c0 -16 2 -22 5 -12 2 9 2 23 0 30 -3 6 -5 -1 -5 -18z"/>
<path d="M6402 400 c0 -19 2 -27 5 -17 2 9 2 25 0 35 -3 9 -5 1 -5 -18z"/>
<path d="M7542 400 c0 -19 2 -27 5 -17 2 9 2 25 0 35 -3 9 -5 1 -5 -18z"/>
<path d="M7930 420 c0 -5 5 -10 10 -10 6 0 10 5 10 10 0 6 -4 10 -10 10 -5 0
-10 -4 -10 -10z"/>
<path d="M8082 400 c0 -19 2 -27 5 -17 2 9 2 25 0 35 -3 9 -5 1 -5 -18z"/>
<path d="M8362 405 c0 -16 2 -22 5 -12 2 9 2 23 0 30 -3 6 -5 -1 -5 -18z"/>
<path d="M8472 400 c0 -19 2 -27 5 -17 2 9 2 25 0 35 -3 9 -5 1 -5 -18z"/>
<path d="M8802 405 c0 -16 2 -22 5 -12 2 9 2 23 0 30 -3 6 -5 -1 -5 -18z"/>
<path d="M8922 400 c0 -19 2 -27 5 -17 2 9 2 25 0 35 -3 9 -5 1 -5 -18z"/>
<path d="M2783 407 c21 -17 21 -24 2 -30 -12 -4 -11 -5 1 -3 27 2 28 23 2 36
-21 10 -21 10 -5 -3z"/>
<path d="M3041 404 c0 -11 3 -14 6 -6 3 7 2 16 -1 19 -3 4 -6 -2 -5 -13z"/>
<path d="M4247 390 c3 -11 7 -20 9 -20 2 0 4 9 4 20 0 11 -4 20 -9 20 -5 0 -7
-9 -4 -20z"/>
<path d="M5352 390 c0 -14 2 -19 5 -12 2 6 2 18 0 25 -3 6 -5 1 -5 -13z"/>
<path d="M3190 391 c0 -10 19 -25 25 -20 1 2 -3 10 -11 17 -8 7 -14 8 -14 3z"/>
<path d="M4215 391 c-6 -11 13 -26 22 -17 4 3 1 6 -6 6 -7 0 -9 5 -6 10 3 6 4
10 1 10 -3 0 -7 -4 -11 -9z"/>
<path d="M5230 392 c0 -19 29 -27 43 -12 10 10 8 12 -7 6 -12 -4 -23 -1 -28 6
-6 11 -8 11 -8 0z"/>
<path d="M5480 391 c0 -10 19 -25 25 -20 1 2 -3 10 -11 17 -8 7 -14 8 -14 3z"/>
<path d="M6130 391 c0 -10 19 -25 25 -20 1 2 -3 10 -11 17 -8 7 -14 8 -14 3z"/>
<path d="M6625 391 c-6 -11 13 -26 22 -17 4 3 1 6 -6 6 -7 0 -9 5 -6 10 3 6 4
10 1 10 -3 0 -7 -4 -11 -9z"/>
<path d="M8020 388 c0 -20 25 -24 36 -6 5 7 3 8 -6 3 -7 -4 -16 -2 -21 6 -7
11 -9 10 -9 -3z"/>
<path d="M8760 391 c0 -10 19 -25 25 -20 1 2 -3 10 -11 17 -8 7 -14 8 -14 3z"/>
<path d="M3770 380 c-9 -6 -10 -10 -3 -10 6 0 15 5 18 10 8 12 4 12 -15 0z"/>
<path d="M3808 378 c5 -5 16 -8 23 -6 8 3 3 7 -10 11 -17 4 -21 3 -13 -5z"/>
<path d="M3986 378 c3 -4 12 -8 20 -8 8 0 14 4 14 8 0 4 -9 8 -19 8 -11 0 -17
-4 -15 -8z"/>
<path d="M4137 379 c7 -7 15 -10 18 -7 3 3 -2 9 -12 12 -14 6 -15 5 -6 -5z"/>
<path d="M4346 378 c3 -4 12 -8 20 -8 8 0 14 4 14 8 0 4 -9 8 -19 8 -11 0 -17
-4 -15 -8z"/>
<path d="M5545 371 c-3 -7 -3 -16 0 -19 3 -3 5 0 5 6 0 7 6 12 14 12 8 0 17 4
20 8 2 4 -4 8 -14 8 -11 0 -22 -7 -25 -15z"/>
<path d="M5610 378 c0 -4 6 -8 14 -8 8 0 17 4 20 8 2 4 -4 8 -15 8 -10 0 -19
-4 -19 -8z"/>
<path d="M5730 376 c7 -7 13 -7 20 0 6 6 3 10 -10 10 -13 0 -16 -4 -10 -10z"/>
<path d="M6486 378 c3 -4 12 -8 20 -8 8 0 14 4 14 8 0 4 -9 8 -19 8 -11 0 -17
-4 -15 -8z"/>
<path d="M8240 378 c0 -4 6 -8 14 -8 8 0 17 4 20 8 2 4 -4 8 -15 8 -10 0 -19
-4 -19 -8z"/>
<path d="M8416 378 c3 -4 12 -8 20 -8 8 0 14 4 14 8 0 4 -9 8 -19 8 -11 0 -17
-4 -15 -8z"/>
<path d="M8661 383 c-1 -6 -4 -20 -7 -30 -5 -17 -5 -17 6 0 6 10 9 23 6 30 -3
9 -5 9 -5 0z"/>
<path d="M8988 378 c5 -5 16 -8 23 -6 8 3 3 7 -10 11 -17 4 -21 3 -13 -5z"/>
<path d="M3093 278 c-5 -7 -6 -29 -3 -48 6 -35 6 -34 11 13 2 26 4 47 3 47 -1
0 -6 -6 -11 -12z"/>
<path d="M3601 243 c1 -27 4 -38 6 -25 6 28 18 28 37 0 9 -12 16 -17 16 -11 0
7 -5 15 -10 18 -8 5 -7 11 1 21 17 20 3 44 -26 44 -23 0 -25 -3 -24 -47z m49
22 c0 -8 -9 -15 -20 -15 -11 0 -20 7 -20 15 0 8 9 15 20 15 11 0 20 -7 20 -15z"/>
<path d="M6267 276 c-4 -10 -5 -21 -2 -24 9 -9 17 6 13 25 -3 17 -4 17 -11 -1z"/>
<path d="M6592 243 c1 -37 2 -41 5 -15 3 19 9 30 15 26 6 -4 6 2 -1 15 -17 31
-21 26 -19 -26z"/>
<path d="M2610 243 c0 -24 2 -43 4 -43 8 0 12 60 4 72 -4 8 -8 -4 -8 -29z"/>
<path d="M2851 264 c0 -11 3 -14 6 -6 3 7 2 16 -1 19 -3 4 -6 -2 -5 -13z"/>
<path d="M2883 240 c0 -25 2 -35 4 -22 2 12 2 32 0 45 -2 12 -4 2 -4 -23z"/>
<path d="M3290 242 c0 -23 3 -42 8 -42 9 0 8 68 -2 77 -3 3 -6 -12 -6 -35z"/>
<path d="M4260 247 c0 -20 3 -38 8 -40 9 -6 8 61 -2 70 -3 3 -6 -10 -6 -30z"/>
<path d="M5112 260 c0 -14 2 -19 5 -12 2 6 2 18 0 25 -3 6 -5 1 -5 -13z"/>
<path d="M5263 240 c0 -25 2 -35 4 -22 2 12 2 32 0 45 -2 12 -4 2 -4 -23z"/>
<path d="M5350 240 c0 -22 3 -40 8 -40 4 0 6 18 4 40 -2 22 -6 40 -8 40 -2 0
-4 -18 -4 -40z"/>
<path d="M6140 247 c0 -20 3 -38 8 -40 9 -6 8 61 -2 70 -3 3 -6 -10 -6 -30z"/>
<path d="M6641 257 c0 -18 -5 -26 -12 -21 -6 4 -5 -3 2 -17 l14 -24 3 23 c2
12 1 32 -1 45 -4 18 -4 17 -6 -6z"/>
<path d="M7540 243 c0 -38 2 -43 23 -42 16 1 18 2 5 6 -19 5 -24 38 -8 48 6 3
14 -4 19 -17 7 -15 10 -17 10 -7 1 9 -6 22 -14 29 -8 7 -15 9 -15 4 0 -5 -5
-2 -10 6 -7 11 -10 4 -10 -27z"/>
<path d="M7602 260 c0 -14 2 -19 5 -12 2 6 2 18 0 25 -3 6 -5 1 -5 -13z"/>
<path d="M7743 240 c-1 -25 1 -37 4 -27 2 9 8 17 13 17 4 0 11 7 14 16 5 14 4
15 -8 5 -12 -10 -15 -8 -19 11 -2 13 -4 3 -4 -22z"/>
<path d="M7850 243 c0 -24 2 -43 4 -43 8 0 12 60 4 72 -4 8 -8 -4 -8 -29z"/>
<path d="M2649 232 c5 -34 6 -35 9 -8 2 16 0 32 -5 37 -5 5 -7 -7 -4 -29z"/>
<path d="M2680 255 c-6 -8 -9 -23 -5 -35 6 -20 29 -27 39 -11 3 5 -2 8 -12 7
-11 -1 -17 6 -17 19 0 13 6 20 17 19 10 -1 15 2 12 7 -8 13 -20 11 -34 -6z"/>
<path d="M2969 258 c12 -16 11 -18 -2 -18 -8 0 -18 6 -20 13 -3 7 -6 5 -6 -5
-1 -11 6 -18 18 -18 28 0 34 15 13 31 -15 13 -16 12 -3 -3z"/>
<path d="M3140 259 c0 -5 5 -7 10 -4 6 3 10 8 10 11 0 2 -4 4 -10 4 -5 0 -10
-5 -10 -11z"/>
<path d="M3348 260 c6 -8 12 -23 12 -33 0 -15 -5 -18 -21 -14 -16 4 -19 3 -11
-5 15 -15 42 -2 42 20 0 11 -8 26 -17 33 -15 11 -16 11 -5 -1z"/>
<path d="M3410 259 c0 -5 5 -7 10 -4 6 3 10 8 10 11 0 2 -4 4 -10 4 -5 0 -10
-5 -10 -11z"/>
<path d="M3479 232 c5 -34 6 -35 9 -8 2 16 0 32 -5 37 -5 5 -7 -7 -4 -29z"/>
<path d="M3512 258 c-20 -20 -14 -36 13 -30 15 2 25 11 24 21 0 10 -2 11 -6 4
-2 -7 -12 -13 -20 -13 -13 0 -13 3 -3 15 15 18 9 20 -8 3z"/>
<path d="M3686 262 c-2 -4 4 -8 14 -8 10 0 16 4 14 8 -3 4 -9 8 -14 8 -5 0
-11 -4 -14 -8z"/>
<path d="M3746 262 c-2 -4 4 -8 14 -8 10 0 16 4 14 8 -3 4 -9 8 -14 8 -5 0
-11 -4 -14 -8z"/>
<path d="M3855 260 c3 -5 8 -10 11 -10 2 0 4 5 4 10 0 6 -5 10 -11 10 -5 0 -7
-4 -4 -10z"/>
<path d="M3926 262 c-2 -4 4 -8 14 -8 10 0 16 4 14 8 -3 4 -9 8 -14 8 -5 0
-11 -4 -14 -8z"/>
<path d="M3986 262 c-2 -4 4 -8 14 -8 10 0 16 4 14 8 -3 4 -9 8 -14 8 -5 0
-11 -4 -14 -8z"/>
<path d="M4040 255 c-6 -8 -10 -19 -8 -24 1 -6 8 1 15 14 13 28 11 31 -7 10z"/>
<path d="M4320 256 c14 -18 13 -19 -7 -14 -18 5 -23 2 -23 -13 0 -23 27 -36
42 -21 8 8 5 9 -11 5 -12 -3 -21 -1 -21 6 0 6 9 11 20 11 25 0 26 13 3 31 -17
13 -17 13 -3 -5z"/>
<path d="M4363 263 c-7 -3 -12 -19 -12 -36 1 -20 3 -25 6 -12 10 45 12 48 28
35 9 -7 15 -8 15 -2 0 12 -21 21 -37 15z"/>
<path d="M4416 257 c3 -10 9 -15 12 -12 3 3 0 11 -7 18 -10 9 -11 8 -5 -6z"/>
<path d="M5075 260 c3 -5 8 -10 11 -10 2 0 4 5 4 10 0 6 -5 10 -11 10 -5 0 -7
-4 -4 -10z"/>
<path d="M5177 263 c-14 -13 -7 -33 11 -33 26 0 34 11 21 27 -13 14 -22 16
-32 6z m28 -13 c3 -5 -1 -10 -9 -10 -9 0 -16 5 -16 10 0 6 4 10 9 10 6 0 13
-4 16 -10z"/>
<path d="M5295 261 c-4 -7 0 -8 11 -4 13 5 16 2 12 -8 -3 -8 -1 -23 3 -34 7
-15 8 -12 6 14 -2 34 -19 51 -32 32z"/>
<path d="M5409 258 c12 -16 11 -18 -2 -18 -8 0 -18 6 -20 13 -3 7 -6 5 -6 -5
-1 -11 6 -18 18 -18 28 0 34 15 13 31 -15 13 -16 12 -3 -3z"/>
<path d="M5444 258 c-4 -6 0 -16 9 -23 22 -16 21 -22 0 -28 -16 -4 -16 -5 -1
-6 24 -2 34 20 15 34 -21 15 -22 29 -1 21 8 -3 12 -2 9 4 -8 13 -22 13 -31 -2z"/>
<path d="M5495 260 c3 -5 8 -10 11 -10 2 0 4 5 4 10 0 6 -5 10 -11 10 -5 0 -7
-4 -4 -10z"/>
<path d="M5566 262 c-2 -4 4 -8 14 -8 10 0 16 4 14 8 -3 4 -9 8 -14 8 -5 0
-11 -4 -14 -8z"/>
<path d="M5783 263 c-7 -3 -13 -9 -13 -15 0 -7 5 -7 13 1 16 13 27 5 27 -21 0
-20 -26 -25 -33 -5 -4 9 -6 9 -6 -1 -1 -8 8 -16 19 -19 11 -3 17 -10 14 -15
-3 -5 -13 -7 -23 -3 -12 5 -13 4 -4 -6 19 -19 43 7 43 46 0 33 -13 46 -37 38z"/>
<path d="M5843 263 c-7 -2 -12 -19 -12 -36 2 -28 2 -29 6 -7 3 14 10 31 15 38
11 13 10 13 -9 5z"/>
<path d="M5899 258 c12 -16 11 -18 -2 -18 -8 0 -18 6 -20 13 -3 7 -6 5 -6 -5
-1 -11 6 -18 18 -18 28 0 34 15 13 31 -15 13 -16 12 -3 -3z"/>
<path d="M5955 260 c16 -25 16 -50 1 -50 -8 0 -17 6 -19 13 -3 7 -6 5 -6 -5
-1 -13 7 -18 24 -18 20 0 25 5 25 24 0 13 -8 30 -17 37 -15 12 -16 12 -8 -1z"/>
<path d="M5990 259 c0 -5 5 -7 10 -4 6 3 10 8 10 11 0 2 -4 4 -10 4 -5 0 -10
-5 -10 -11z"/>
<path d="M6032 258 c-17 -17 -15 -48 4 -55 8 -3 20 -1 26 5 8 8 5 9 -11 5 -12
-3 -21 -1 -21 6 0 6 9 11 20 11 13 0 20 6 19 18 0 10 -3 12 -6 5 -2 -7 -12
-13 -20 -13 -13 0 -13 3 -3 15 15 18 9 20 -8 3z"/>
<path d="M6228 260 c16 -19 15 -50 -2 -50 -8 0 -17 5 -19 10 -3 6 -4 5 -3 -2
2 -7 11 -13 22 -13 25 0 30 38 7 55 -15 12 -16 12 -5 0z"/>
<path d="M6439 232 c5 -34 6 -35 9 -8 2 16 0 32 -5 37 -5 5 -7 -7 -4 -29z"/>
<path d="M6475 261 c-4 -7 0 -8 11 -4 13 5 16 2 12 -8 -3 -8 -1 -23 3 -34 7
-15 8 -12 6 14 -2 34 -19 51 -32 32z"/>
<path d="M6525 260 c3 -5 8 -10 11 -10 2 0 4 5 4 10 0 6 -5 10 -11 10 -5 0 -7
-4 -4 -10z"/>
<path d="M6677 263 c-14 -13 -7 -33 11 -33 26 0 34 11 21 27 -13 14 -22 16
-32 6z m28 -13 c3 -5 -1 -10 -9 -10 -9 0 -16 5 -16 10 0 6 4 10 9 10 6 0 13
-4 16 -10z"/>
<path d="M6785 260 c3 -5 8 -10 11 -10 2 0 4 5 4 10 0 6 -5 10 -11 10 -5 0 -7
-4 -4 -10z"/>
<path d="M7632 258 c-7 -7 -12 -19 -11 -27 0 -10 4 -6 10 8 6 15 14 21 25 17
8 -3 12 -2 9 4 -8 13 -18 13 -33 -2z"/>
<path d="M7696 262 c-2 -4 4 -8 14 -8 10 0 16 4 14 8 -3 4 -9 8 -14 8 -5 0
-11 -4 -14 -8z"/>
<path d="M7806 262 c-2 -4 4 -8 14 -8 10 0 16 4 14 8 -3 4 -9 8 -14 8 -5 0
-11 -4 -14 -8z"/>
<path d="M7887 238 c8 -44 13 -48 13 -10 0 17 -4 34 -10 37 -6 4 -7 -6 -3 -27z"/>
<path d="M7925 261 c-4 -7 0 -8 11 -4 13 5 16 2 12 -8 -3 -8 -1 -23 3 -34 7
-15 8 -12 6 14 -2 34 -19 51 -32 32z"/>
<path d="M8013 263 c-7 -3 -12 -19 -12 -36 l1 -32 7 29 c3 17 11 30 16 30 6 0
13 -13 16 -30 7 -28 7 -28 8 -3 1 29 -17 49 -36 42z"/>
<path d="M8102 258 c-17 -17 -15 -48 4 -55 8 -3 20 -1 26 5 8 8 5 9 -11 5 -20
-5 -22 -2 -19 18 2 13 9 23 16 21 8 -1 11 2 7 8 -8 13 -8 13 -23 -2z"/>
<path d="M8253 263 c-8 -3 -13 -22 -12 -51 1 -26 3 -40 6 -31 2 10 13 19 24
22 21 6 26 39 7 54 -7 6 -19 8 -25 6z m27 -34 c0 -10 -7 -19 -15 -19 -15 0
-21 31 -9 43 11 10 24 -3 24 -24z"/>
<path d="M8300 259 c0 -5 5 -7 10 -4 6 3 10 8 10 11 0 2 -4 4 -10 4 -5 0 -10
-5 -10 -11z"/>
<path d="M8340 255 c-17 -20 -8 -50 15 -50 14 0 21 8 23 26 4 31 -20 45 -38
24z m30 -26 c0 -10 -7 -19 -15 -19 -15 0 -21 31 -9 43 11 10 24 -3 24 -24z"/>
<path d="M8400 255 c-6 -8 -10 -19 -8 -24 1 -6 8 1 15 14 13 28 11 31 -7 10z"/>
<path d="M8592 258 c-20 -20 -14 -36 13 -30 15 2 25 11 24 21 0 10 -2 11 -6 4
-2 -7 -12 -13 -20 -13 -13 0 -13 3 -3 15 15 18 9 20 -8 3z"/>
<path d="M8679 232 c5 -34 6 -35 9 -8 2 16 0 32 -5 37 -5 5 -7 -7 -4 -29z"/>
<path d="M8716 262 c-2 -4 4 -8 14 -8 10 0 16 4 14 8 -3 4 -9 8 -14 8 -5 0
-11 -4 -14 -8z"/>
<path d="M8923 263 c-8 -3 -13 -22 -12 -51 1 -26 3 -39 6 -30 2 9 12 19 21 21
15 4 15 5 0 6 -11 1 -18 9 -18 20 0 30 19 35 29 9 7 -15 10 -17 10 -7 1 20
-20 38 -36 32z"/>
<path d="M8980 260 c-8 -5 -12 -12 -9 -15 4 -3 12 1 19 10 14 17 11 19 -10 5z"/>
<path d="M2760 250 c0 -5 5 -10 10 -10 6 0 10 5 10 10 0 6 -4 10 -10 10 -5 0
-10 -4 -10 -10z"/>
<path d="M3122 230 c0 -19 2 -27 5 -17 2 9 2 25 0 35 -3 9 -5 1 -5 -18z"/>
<path d="M3232 230 c0 -19 2 -27 5 -17 2 9 2 25 0 35 -3 9 -5 1 -5 -18z"/>
<path d="M3440 230 c0 -16 2 -30 4 -30 2 0 6 14 8 30 3 17 1 30 -4 30 -4 0 -8
-13 -8 -30z"/>
<path d="M6080 252 c0 -5 10 -17 23 -26 l22 -17 -24 5 c-17 3 -21 2 -13 -6 12
-12 42 -4 42 12 0 5 -4 10 -9 10 -5 0 -17 7 -25 16 -9 8 -16 11 -16 6z"/>
<path d="M6734 227 c-1 -19 2 -24 7 -15 8 11 10 11 18 0 5 -9 8 -4 7 15 -1 39
-31 39 -32 0z"/>
<path d="M8152 230 c0 -19 2 -27 5 -17 2 9 2 25 0 35 -3 9 -5 1 -5 -18z"/>
<path d="M8186 247 c3 -10 9 -15 12 -12 3 3 0 11 -7 18 -10 9 -11 8 -5 -6z"/>
<path d="M8454 230 c1 -24 36 -44 36 -21 0 6 -6 8 -14 5 -10 -4 -16 3 -19 18
-4 22 -4 21 -3 -2z"/>
<path d="M8510 230 c0 -16 2 -30 4 -30 2 0 6 14 8 30 3 17 1 30 -4 30 -4 0 -8
-13 -8 -30z"/>
<path d="M9010 235 c0 -26 -24 -35 -33 -12 -3 6 -6 -1 -6 -18 0 -16 3 -25 7
-19 4 6 15 13 25 17 15 6 26 57 12 57 -3 0 -5 -11 -5 -25z"/>
<path d="M4097 239 c7 -7 15 -10 18 -7 3 3 -2 9 -12 12 -14 6 -15 5 -6 -5z"/>
<path d="M2852 220 c0 -14 2 -19 5 -12 2 6 2 18 0 25 -3 6 -5 1 -5 -13z"/>
<path d="M3670 232 c0 -14 23 -32 40 -31 8 0 4 5 -10 11 l-25 11 25 7 25 8
-27 1 c-16 1 -28 -3 -28 -7z"/>
<path d="M3910 232 c0 -14 23 -32 40 -31 8 0 4 5 -10 11 l-25 11 25 7 25 8
-27 1 c-16 1 -28 -3 -28 -7z"/>
<path d="M4223 234 c25 -8 21 -27 -4 -21 -16 4 -19 3 -11 -5 14 -14 45 -2 40
15 -3 6 -13 13 -24 14 -16 2 -16 1 -1 -3z"/>
<path d="M5586 225 c4 -10 0 -15 -11 -15 -10 0 -13 5 -9 12 4 7 3 8 -5 4 -16
-10 -4 -26 20 -26 12 0 19 7 19 20 0 11 -4 20 -10 20 -5 0 -7 -7 -4 -15z"/>
<path d="M2740 221 c0 -5 5 -13 10 -16 6 -3 10 -2 10 4 0 5 -4 13 -10 16 -5 3
-10 2 -10 -4z"/>
<path d="M4130 222 c0 -6 -8 -13 -17 -15 -16 -4 -16 -5 -1 -6 18 -1 34 16 24
26 -3 4 -6 1 -6 -5z"/>
<path d="M5285 221 c-6 -11 13 -26 22 -17 4 3 1 6 -6 6 -7 0 -9 5 -6 10 3 6 4
10 1 10 -3 0 -7 -4 -11 -9z"/>
<path d="M6465 221 c-6 -11 13 -26 22 -17 4 3 1 6 -6 6 -7 0 -9 5 -6 10 3 6 4
10 1 10 -3 0 -7 -4 -11 -9z"/>
<path d="M7601 214 c0 -11 3 -14 6 -6 3 7 2 16 -1 19 -3 4 -6 -2 -5 -13z"/>
<path d="M7915 221 c-6 -11 13 -26 22 -17 4 3 1 6 -6 6 -7 0 -9 5 -6 10 3 6 4
10 1 10 -3 0 -7 -4 -11 -9z"/>
<path d="M8850 218 c0 -11 8 -18 20 -18 11 0 20 5 20 11 0 5 -5 7 -11 3 -6 -3
-15 0 -20 7 -7 11 -9 10 -9 -3z"/>
<path d="M2948 208 c5 -5 16 -8 23 -6 8 3 3 7 -10 11 -17 4 -21 3 -13 -5z"/>
<path d="M3015 210 c3 -5 8 -10 11 -10 2 0 4 5 4 10 0 6 -5 10 -11 10 -5 0 -7
-4 -4 -10z"/>
<path d="M3525 210 c-16 -7 -17 -9 -3 -9 9 -1 20 4 23 9 7 11 7 11 -20 0z"/>
<path d="M3806 208 c3 -4 12 -8 20 -8 8 0 14 4 14 8 0 4 -9 8 -19 8 -11 0 -17
-4 -15 -8z"/>
<path d="M3990 206 c7 -7 13 -7 20 0 6 6 3 10 -10 10 -13 0 -16 -4 -10 -10z"/>
<path d="M4055 210 c-16 -7 -17 -9 -3 -9 9 -1 20 4 23 9 7 11 7 11 -20 0z"/>
<path d="M4165 210 c3 -5 8 -10 11 -10 2 0 4 5 4 10 0 6 -5 10 -11 10 -5 0 -7
-4 -4 -10z"/>
<path d="M5178 208 c5 -5 16 -8 23 -6 8 3 3 7 -10 11 -17 4 -21 3 -13 -5z"/>
<path d="M5388 208 c5 -5 16 -8 23 -6 8 3 3 7 -10 11 -17 4 -21 3 -13 -5z"/>
<path d="M5686 208 c3 -4 12 -8 20 -8 8 0 14 4 14 8 0 4 -9 8 -19 8 -11 0 -17
-4 -15 -8z"/>
<path d="M5878 208 c5 -5 16 -8 23 -6 8 3 3 7 -10 11 -17 4 -21 3 -13 -5z"/>
<path d="M6330 210 c0 -5 5 -10 10 -10 6 0 10 5 10 10 0 6 -4 10 -10 10 -5 0
-10 -4 -10 -10z"/>
<path d="M6678 208 c5 -5 16 -8 23 -6 8 3 3 7 -10 11 -17 4 -21 3 -13 -5z"/>
<path d="M7645 210 c-16 -7 -17 -9 -3 -9 9 -1 20 4 23 9 7 11 7 11 -20 0z"/>
<path d="M7700 206 c7 -7 13 -7 20 0 6 6 3 10 -10 10 -13 0 -16 -4 -10 -10z"/>
<path d="M7810 206 c7 -7 13 -7 20 0 6 6 3 10 -10 10 -13 0 -16 -4 -10 -10z"/>
<path d="M8201 204 c0 -11 3 -14 6 -6 3 7 2 16 -1 19 -3 4 -6 -2 -5 -13z"/>
<path d="M8415 210 c-16 -7 -17 -9 -3 -9 9 -1 20 4 23 9 7 11 7 11 -20 0z"/>
<path d="M8605 210 c-16 -7 -17 -9 -3 -9 9 -1 20 4 23 9 7 11 7 11 -20 0z"/>
<path d="M8720 206 c7 -7 13 -7 20 0 6 6 3 10 -10 10 -13 0 -16 -4 -10 -10z"/>
<path d="M2620 111 c0 -5 9 -7 20 -4 11 3 20 7 20 9 0 2 -9 4 -20 4 -11 0 -20
-4 -20 -9z"/>
<path d="M6384 106 c-3 -8 -4 -29 -2 -48 3 -29 4 -27 8 15 5 48 3 58 -6 33z"/>
<path d="M3213 70 c0 -25 2 -35 4 -22 2 12 2 32 0 45 -2 12 -4 2 -4 -23z"/>
<path d="M3390 70 c0 -22 3 -40 8 -40 4 0 6 18 4 40 -2 22 -6 40 -8 40 -2 0
-4 -18 -4 -40z"/>
<path d="M3752 70 c0 -31 2 -39 7 -25 8 19 8 19 19 0 6 -11 12 -15 12 -9 0 6
-6 17 -14 24 -8 6 -17 21 -19 33 -2 12 -5 2 -5 -23z"/>
<path d="M3833 70 c0 -25 2 -35 4 -22 2 12 2 32 0 45 -2 12 -4 2 -4 -23z"/>
<path d="M4093 70 c0 -25 2 -35 4 -22 2 12 2 32 0 45 -2 12 -4 2 -4 -23z"/>
<path d="M4120 73 c0 -24 2 -43 4 -43 8 0 12 60 4 72 -4 8 -8 -4 -8 -29z"/>
<path d="M5098 103 c-2 -5 -1 -24 3 -43 l6 -35 2 43 c1 39 -3 52 -11 35z"/>
<path d="M5230 73 c0 -24 2 -43 4 -43 8 0 12 60 4 72 -4 8 -8 -4 -8 -29z"/>
<path d="M5440 70 c0 -22 3 -40 8 -40 4 0 6 18 4 40 -2 22 -6 40 -8 40 -2 0
-4 -18 -4 -40z"/>
<path d="M5626 101 c-4 -7 -5 -15 -2 -18 9 -9 19 4 14 18 -4 11 -6 11 -12 0z"/>
<path d="M5656 101 c-4 -7 -5 -15 -2 -18 9 -9 19 4 14 18 -4 11 -6 11 -12 0z"/>
<path d="M3965 90 c3 -5 8 -10 11 -10 2 0 4 5 4 10 0 6 -5 10 -11 10 -5 0 -7
-4 -4 -10z"/>
<path d="M4270 90 c0 -5 5 -10 10 -10 6 0 10 5 10 10 0 6 -4 10 -10 10 -5 0
-10 -4 -10 -10z"/>
<path d="M4420 65 c0 -19 4 -35 8 -35 4 0 6 16 4 35 -2 19 -6 35 -8 35 -2 0
-4 -16 -4 -35z"/>
<path d="M5483 93 c-7 -3 -13 -9 -13 -15 0 -7 5 -7 13 1 17 13 27 5 27 -22 0
-15 -5 -18 -21 -14 -16 4 -19 3 -11 -5 15 -15 42 -2 42 20 0 23 -20 41 -37 35z"/>
<path d="M5571 86 c-18 -21 -9 -51 14 -51 24 0 32 36 12 53 -11 10 -17 9 -26
-2z m29 -27 c0 -10 -7 -19 -15 -19 -15 0 -21 31 -9 43 11 10 24 -3 24 -24z"/>
<path d="M5692 88 c-17 -17 -15 -48 4 -55 8 -3 20 -1 26 5 8 8 5 9 -11 5 -12
-3 -21 -1 -21 6 0 6 9 11 20 11 11 0 20 4 20 9 0 5 -10 7 -22 3 -21 -5 -22 -4
-9 11 16 20 11 23 -7 5z"/>
<path d="M5872 88 c-17 -17 -15 -48 4 -55 8 -3 20 -1 26 5 8 8 5 9 -11 5 -12
-3 -21 -1 -21 6 0 6 9 11 20 11 23 0 26 13 7 29 -10 8 -17 7 -25 -1z m23 -8
c3 -5 -1 -10 -10 -10 -9 0 -13 5 -10 10 3 6 8 10 10 10 2 0 7 -4 10 -10z"/>
<path d="M6290 85 c-6 -8 -10 -19 -8 -24 1 -6 8 1 15 14 13 28 11 31 -7 10z"/>
<path d="M6530 89 c0 -5 5 -7 10 -4 6 3 10 8 10 11 0 2 -4 4 -10 4 -5 0 -10
-5 -10 -11z"/>
<path d="M6671 86 c-18 -21 -9 -50 14 -53 16 -1 16 -1 3 3 -24 7 -23 24 2 24
23 0 26 13 6 29 -10 9 -16 8 -25 -3z m24 -6 c3 -5 -1 -10 -10 -10 -9 0 -13 5
-10 10 3 6 8 10 10 10 2 0 7 -4 10 -10z"/>
<path d="M2682 60 c0 -19 2 -27 5 -17 2 9 2 25 0 35 -3 9 -5 1 -5 -18z"/>
<path d="M2742 60 c0 -19 2 -27 5 -17 2 9 2 25 0 35 -3 9 -5 1 -5 -18z"/>
<path d="M3044 75 c-9 -23 4 -47 23 -43 20 4 30 35 15 50 -6 6 -8 0 -5 -16 4
-20 1 -26 -12 -26 -13 0 -16 6 -13 25 6 28 1 33 -8 10z"/>
<path d="M3140 64 c0 -21 -4 -25 -20 -21 -11 3 -18 1 -14 -4 3 -5 14 -9 25 -9
14 0 19 7 19 30 0 17 -2 30 -5 30 -3 0 -5 -12 -5 -26z"/>
<path d="M3695 81 c-3 -6 5 -15 17 -22 22 -12 22 -12 3 -20 -19 -8 -19 -9 -1
-6 27 3 31 24 6 32 -11 3 -18 11 -15 16 4 5 4 9 1 9 -3 0 -7 -4 -11 -9z"/>
<path d="M3880 75 c0 -8 7 -15 15 -15 21 0 19 -18 -2 -23 -14 -4 -12 -5 5 -6
27 -1 29 19 2 42 -17 14 -20 14 -20 2z"/>
<path d="M4215 80 c6 -10 3 -12 -13 -8 -12 4 -22 2 -22 -3 0 -5 11 -9 25 -9
26 0 33 14 13 26 -7 5 -8 3 -3 -6z"/>
<path d="M4304 75 c-9 -23 3 -45 23 -44 17 1 17 2 1 6 -24 6 -23 23 2 23 11 0
20 4 20 9 0 5 -10 7 -22 3 -14 -3 -19 -2 -14 6 4 7 5 12 1 12 -3 0 -8 -7 -11
-15z"/>
<path d="M4365 81 c-3 -6 5 -15 17 -22 22 -12 22 -12 3 -20 -19 -8 -19 -9 -1
-6 27 3 31 24 6 32 -11 3 -18 11 -15 16 4 5 4 9 1 9 -3 0 -7 -4 -11 -9z"/>
<path d="M5167 84 c-3 -5 1 -15 9 -22 16 -14 18 -5 5 17 -5 7 -11 9 -14 5z"/>
<path d="M5267 69 c4 -13 8 -18 11 -10 2 7 -1 18 -6 23 -8 8 -9 4 -5 -13z"/>
<path d="M5326 65 c3 -18 0 -25 -11 -25 -9 0 -13 5 -10 10 3 6 1 10 -4 10 -6
0 -11 -7 -11 -15 0 -9 9 -15 25 -15 20 0 25 5 25 24 0 14 -4 27 -9 31 -6 3 -8
-6 -5 -20z"/>
<path d="M5981 78 c-1 -13 7 -18 24 -18 26 0 33 14 13 26 -7 4 -8 3 -4 -4 4
-7 1 -12 -8 -12 -8 0 -17 6 -19 13 -3 7 -6 5 -6 -5z"/>
<path d="M6042 60 c0 -19 2 -27 5 -17 2 9 2 25 0 35 -3 9 -5 1 -5 -18z"/>
<path d="M6202 60 c0 -19 2 -27 5 -17 2 9 2 25 0 35 -3 9 -5 1 -5 -18z"/>
<path d="M6220 60 c0 -39 6 -39 12 0 3 17 1 30 -4 30 -4 0 -8 -13 -8 -30z"/>
<path d="M6258 60 c2 -17 6 -30 8 -30 2 0 4 14 4 30 0 17 -4 30 -8 30 -5 0 -7
-13 -4 -30z"/>
<path d="M6411 78 c-1 -13 7 -18 24 -18 26 0 33 14 13 26 -7 4 -8 3 -4 -4 4
-7 1 -12 -8 -12 -8 0 -17 6 -19 13 -3 7 -6 5 -6 -5z"/>
<path d="M6564 60 c1 -18 7 -25 21 -25 14 0 20 7 21 25 1 22 0 22 -3 3 -2 -13
-10 -23 -18 -23 -8 0 -16 10 -18 23 -3 19 -4 19 -3 -3z"/>
<path d="M6620 60 c0 -39 6 -39 12 0 3 17 1 30 -4 30 -4 0 -8 -13 -8 -30z"/>
<path d="M6720 80 c0 -5 9 -14 20 -20 11 -6 20 -9 20 -8 0 2 -9 11 -20 21 -11
9 -20 13 -20 7z"/>
<path d="M5369 62 c23 -19 24 -20 5 -25 -15 -5 -16 -5 -1 -4 27 3 25 18 -3 35
l-25 14 24 -20z"/>
<path d="M2800 56 c0 -8 -8 -17 -17 -19 -14 -4 -12 -5 5 -6 16 -1 22 5 22 19
0 11 -2 20 -5 20 -3 0 -5 -6 -5 -14z"/>
<path d="M6110 55 c0 -8 -7 -15 -16 -15 -9 0 -12 5 -8 12 4 7 3 8 -5 4 -16
-10 -4 -26 20 -26 12 0 19 7 19 20 0 11 -2 20 -5 20 -3 0 -5 -7 -5 -15z"/>
<path d="M3996 46 c7 -18 44 -22 44 -5 0 5 -5 7 -10 4 -6 -4 -18 -1 -26 6 -12
10 -13 9 -8 -5z"/>
<path d="M5936 47 c3 -10 9 -15 12 -12 3 3 0 11 -7 18 -10 9 -11 8 -5 -6z"/>
<path d="M6470 48 c0 -13 8 -18 25 -18 14 0 25 4 25 10 0 5 -7 7 -16 3 -9 -3
-20 0 -25 8 -7 11 -9 11 -9 -3z"/>
<path d="M2890 39 c0 -5 5 -7 10 -4 6 3 10 8 10 11 0 2 -4 4 -10 4 -5 0 -10
-5 -10 -11z"/>
<path d="M3001 34 c0 -11 3 -14 6 -6 3 7 2 16 -1 19 -3 4 -6 -2 -5 -13z"/>
<path d="M3270 38 c0 -10 27 -10 34 0 2 4 -4 8 -15 8 -10 0 -19 -4 -19 -8z"/>
<path d="M3330 40 c0 -5 5 -10 11 -10 5 0 7 5 4 10 -3 6 -8 10 -11 10 -2 0 -4
-4 -4 -10z"/>
<path d="M3465 40 c3 -5 8 -10 11 -10 2 0 4 5 4 10 0 6 -5 10 -11 10 -5 0 -7
-4 -4 -10z"/>
<path d="M3525 40 c-19 -8 -19 -9 3 -9 12 -1 22 4 22 9 0 6 -1 10 -2 9 -2 0
-12 -4 -23 -9z"/>
<path d="M3570 40 c0 -5 5 -10 11 -10 5 0 7 5 4 10 -3 6 -8 10 -11 10 -2 0 -4
-4 -4 -10z"/>
<path d="M4188 38 c5 -5 16 -8 23 -6 8 3 3 7 -10 11 -17 4 -21 3 -13 -5z"/>
<path d="M5148 38 c5 -5 16 -8 23 -6 8 3 3 7 -10 11 -17 4 -21 3 -13 -5z"/>
<path d="M5988 38 c5 -5 16 -8 23 -6 8 3 3 7 -10 11 -17 4 -21 3 -13 -5z"/>
<path d="M6140 38 c0 -4 9 -8 20 -8 11 0 20 4 20 8 0 4 -9 8 -20 8 -11 0 -20
-4 -20 -8z"/>
<path d="M6305 39 c-17 -6 -17 -8 -2 -8 9 -1 17 -5 17 -10 0 -5 -8 -12 -17
-14 -17 -4 -17 -5 0 -6 18 -1 32 20 25 37 -1 5 -12 6 -23 1z"/>
<path d="M6418 38 c5 -5 16 -8 23 -6 8 3 3 7 -10 11 -17 4 -21 3 -13 -5z"/>
<path d="M6728 33 c6 -2 18 -2 25 0 6 3 1 5 -13 5 -14 0 -19 -2 -12 -5z"/>
<path d="M6140 8 c0 -10 27 -10 34 0 2 4 -4 8 -15 8 -10 0 -19 -4 -19 -8z"/>
</g>
</svg>
